<mxfile host="app.diagrams.net" modified="2020-12-21T08:11:42.634Z" agent="5.0 (Windows NT 10.0; Win64; x64) AppleWebKit/537.36 (KHTML, like Gecko) Chrome/87.0.4280.88 Safari/537.36 Edg/87.0.664.66" etag="99A1fFHfSWeBhSwQwtyj" version="14.1.1" type="github" pages="8">
  <diagram name="mybatis_all_selectList" id="13e1069c-82ec-6db2-03f1-153e76fe0fe0">
    <mxGraphModel dx="1422" dy="762" grid="1" gridSize="10" guides="1" tooltips="1" connect="1" arrows="1" fold="1" page="1" pageScale="1" pageWidth="1100" pageHeight="850" background="#ffffff" math="0" shadow="0">
      <root>
        <mxCell id="0" />
        <mxCell id="1" parent="0" />
        <mxCell id="7baba1c4bc27f4b0-2" value="Configuration" style="shape=umlLifeline;perimeter=lifelinePerimeter;whiteSpace=wrap;html=1;container=1;collapsible=0;recursiveResize=0;outlineConnect=0;rounded=1;shadow=0;comic=0;labelBackgroundColor=none;strokeWidth=1;fontFamily=Verdana;fontSize=12;align=center;" parent="1" vertex="1">
          <mxGeometry x="240" y="80" width="100" height="1050" as="geometry" />
        </mxCell>
        <mxCell id="7baba1c4bc27f4b0-10" value="" style="html=1;points=[];perimeter=orthogonalPerimeter;rounded=0;shadow=0;comic=0;labelBackgroundColor=none;strokeWidth=1;fontFamily=Verdana;fontSize=12;align=center;" parent="7baba1c4bc27f4b0-2" vertex="1">
          <mxGeometry x="45" y="130" width="10" height="80" as="geometry" />
        </mxCell>
        <mxCell id="9s3jjBZ1adouppyQXk-d-19" value="" style="html=1;points=[];perimeter=orthogonalPerimeter;rounded=0;shadow=0;comic=0;labelBackgroundColor=none;strokeWidth=1;fontFamily=Verdana;fontSize=12;align=center;" parent="7baba1c4bc27f4b0-2" vertex="1">
          <mxGeometry x="45" y="409.99999999999994" width="10" height="80" as="geometry" />
        </mxCell>
        <mxCell id="7baba1c4bc27f4b0-3" value="SimpleExecutor" style="shape=umlLifeline;perimeter=lifelinePerimeter;whiteSpace=wrap;html=1;container=1;collapsible=0;recursiveResize=0;outlineConnect=0;rounded=1;shadow=0;comic=0;labelBackgroundColor=none;strokeWidth=1;fontFamily=Verdana;fontSize=12;align=center;" parent="1" vertex="1">
          <mxGeometry x="400" y="80" width="100" height="1050" as="geometry" />
        </mxCell>
        <mxCell id="7baba1c4bc27f4b0-13" value="" style="html=1;points=[];perimeter=orthogonalPerimeter;rounded=0;shadow=0;comic=0;labelBackgroundColor=none;strokeWidth=1;fontFamily=Verdana;fontSize=12;align=center;" parent="7baba1c4bc27f4b0-3" vertex="1">
          <mxGeometry x="45" y="240" width="10" height="430" as="geometry" />
        </mxCell>
        <mxCell id="9s3jjBZ1adouppyQXk-d-20" value="" style="html=1;points=[];perimeter=orthogonalPerimeter;rounded=0;shadow=0;comic=0;labelBackgroundColor=none;strokeWidth=1;fontFamily=Verdana;fontSize=12;align=center;" parent="7baba1c4bc27f4b0-3" vertex="1">
          <mxGeometry x="50" y="400" width="10" height="210" as="geometry" />
        </mxCell>
        <mxCell id="7baba1c4bc27f4b0-4" value="BaseExecutor" style="shape=umlLifeline;perimeter=lifelinePerimeter;whiteSpace=wrap;html=1;container=1;collapsible=0;recursiveResize=0;outlineConnect=0;rounded=1;shadow=0;comic=0;labelBackgroundColor=none;strokeWidth=1;fontFamily=Verdana;fontSize=12;align=center;" parent="1" vertex="1">
          <mxGeometry x="540" y="80" width="100" height="1050" as="geometry" />
        </mxCell>
        <mxCell id="7baba1c4bc27f4b0-5" value="StatementHandler" style="shape=umlLifeline;perimeter=lifelinePerimeter;whiteSpace=wrap;html=1;container=1;collapsible=0;recursiveResize=0;outlineConnect=0;rounded=1;shadow=0;comic=0;labelBackgroundColor=none;strokeWidth=1;fontFamily=Verdana;fontSize=12;align=center;" parent="1" vertex="1">
          <mxGeometry x="680" y="80" width="100" height="1060" as="geometry" />
        </mxCell>
        <mxCell id="9s3jjBZ1adouppyQXk-d-32" value="" style="html=1;points=[];perimeter=orthogonalPerimeter;" parent="7baba1c4bc27f4b0-5" vertex="1">
          <mxGeometry x="45" y="510" width="10" height="220" as="geometry" />
        </mxCell>
        <mxCell id="7baba1c4bc27f4b0-6" value="PreparedSttement" style="shape=umlLifeline;perimeter=lifelinePerimeter;whiteSpace=wrap;html=1;container=1;collapsible=0;recursiveResize=0;outlineConnect=0;rounded=1;shadow=0;comic=0;labelBackgroundColor=none;strokeWidth=1;fontFamily=Verdana;fontSize=12;align=center;" parent="1" vertex="1">
          <mxGeometry x="820" y="80" width="100" height="1060" as="geometry" />
        </mxCell>
        <mxCell id="9s3jjBZ1adouppyQXk-d-37" value="" style="html=1;points=[];perimeter=orthogonalPerimeter;" parent="7baba1c4bc27f4b0-6" vertex="1">
          <mxGeometry x="46" y="530" width="10" height="80" as="geometry" />
        </mxCell>
        <mxCell id="7baba1c4bc27f4b0-7" value="ResultHandler" style="shape=umlLifeline;perimeter=lifelinePerimeter;whiteSpace=wrap;html=1;container=1;collapsible=0;recursiveResize=0;outlineConnect=0;rounded=1;shadow=0;comic=0;labelBackgroundColor=none;strokeWidth=1;fontFamily=Verdana;fontSize=12;align=center;" parent="1" vertex="1">
          <mxGeometry x="960" y="80" width="100" height="1060" as="geometry" />
        </mxCell>
        <mxCell id="9s3jjBZ1adouppyQXk-d-40" value="" style="html=1;points=[];perimeter=orthogonalPerimeter;" parent="7baba1c4bc27f4b0-7" vertex="1">
          <mxGeometry x="45" y="650" width="10" height="80" as="geometry" />
        </mxCell>
        <mxCell id="7baba1c4bc27f4b0-8" value="DefaultSqlSession" style="shape=umlLifeline;perimeter=lifelinePerimeter;whiteSpace=wrap;html=1;container=1;collapsible=0;recursiveResize=0;outlineConnect=0;rounded=1;shadow=0;comic=0;labelBackgroundColor=none;strokeWidth=1;fontFamily=Verdana;fontSize=12;align=center;" parent="1" vertex="1">
          <mxGeometry x="100" y="80" width="100" height="1050" as="geometry" />
        </mxCell>
        <mxCell id="7baba1c4bc27f4b0-9" value="" style="html=1;points=[];perimeter=orthogonalPerimeter;rounded=0;shadow=0;comic=0;labelBackgroundColor=none;strokeWidth=1;fontFamily=Verdana;fontSize=12;align=center;" parent="7baba1c4bc27f4b0-8" vertex="1">
          <mxGeometry x="45" y="100" width="10" height="690" as="geometry" />
        </mxCell>
        <mxCell id="7baba1c4bc27f4b0-16" value="" style="html=1;points=[];perimeter=orthogonalPerimeter;rounded=0;shadow=0;comic=0;labelBackgroundColor=none;strokeWidth=1;fontFamily=Verdana;fontSize=12;align=center;" parent="1" vertex="1">
          <mxGeometry x="585" y="350" width="10" height="180" as="geometry" />
        </mxCell>
        <mxCell id="7baba1c4bc27f4b0-11" value="getMappedStatement()" style="html=1;verticalAlign=bottom;endArrow=block;labelBackgroundColor=none;fontFamily=Verdana;fontSize=12;edgeStyle=elbowEdgeStyle;elbow=vertical;" parent="1" source="7baba1c4bc27f4b0-9" edge="1">
          <mxGeometry relative="1" as="geometry">
            <mxPoint x="220" y="190" as="sourcePoint" />
            <mxPoint x="285" y="210" as="targetPoint" />
            <Array as="points">
              <mxPoint x="220" y="210" />
            </Array>
          </mxGeometry>
        </mxCell>
        <mxCell id="7baba1c4bc27f4b0-14" value="query()" style="html=1;verticalAlign=bottom;endArrow=block;labelBackgroundColor=none;fontFamily=Verdana;fontSize=12;edgeStyle=elbowEdgeStyle;elbow=vertical;" parent="1" source="7baba1c4bc27f4b0-8" edge="1">
          <mxGeometry relative="1" as="geometry">
            <mxPoint x="170" y="310" as="sourcePoint" />
            <mxPoint x="445" y="320" as="targetPoint" />
            <Array as="points">
              <mxPoint x="445" y="320" />
              <mxPoint x="380" y="310" />
            </Array>
          </mxGeometry>
        </mxCell>
        <mxCell id="7baba1c4bc27f4b0-34" value="" style="html=1;points=[];perimeter=orthogonalPerimeter;rounded=0;shadow=0;comic=0;labelBackgroundColor=none;strokeWidth=1;fontFamily=Verdana;fontSize=12;align=center;" parent="1" vertex="1">
          <mxGeometry x="590" y="389.04" width="10" height="30" as="geometry" />
        </mxCell>
        <mxCell id="9s3jjBZ1adouppyQXk-d-2" value="Actor" style="shape=umlActor;verticalLabelPosition=bottom;verticalAlign=top;html=1;outlineConnect=0;" parent="1" vertex="1">
          <mxGeometry x="30" y="80" width="30" height="60" as="geometry" />
        </mxCell>
        <mxCell id="9s3jjBZ1adouppyQXk-d-3" value="" style="html=1;points=[];perimeter=orthogonalPerimeter;rounded=0;shadow=0;comic=0;labelBackgroundColor=none;strokeWidth=1;fontFamily=Verdana;fontSize=12;align=center;" parent="1" vertex="1">
          <mxGeometry x="40" y="180" width="10" height="670" as="geometry" />
        </mxCell>
        <mxCell id="9s3jjBZ1adouppyQXk-d-4" value="selectList()" style="html=1;verticalAlign=bottom;endArrow=block;labelBackgroundColor=none;fontFamily=Verdana;fontSize=12;edgeStyle=elbowEdgeStyle;elbow=vertical;entryX=0.5;entryY=0;entryDx=0;entryDy=0;entryPerimeter=0;exitX=0.8;exitY=0.002;exitDx=0;exitDy=0;exitPerimeter=0;" parent="1" source="9s3jjBZ1adouppyQXk-d-3" target="7baba1c4bc27f4b0-9" edge="1">
          <mxGeometry relative="1" as="geometry">
            <mxPoint x="60" y="180" as="sourcePoint" />
            <mxPoint x="140" y="180" as="targetPoint" />
          </mxGeometry>
        </mxCell>
        <mxCell id="9s3jjBZ1adouppyQXk-d-7" value="MapperedStatement" style="html=1;verticalAlign=bottom;endArrow=open;dashed=1;endSize=8;labelBackgroundColor=none;fontFamily=Verdana;fontSize=12;edgeStyle=elbowEdgeStyle;elbow=vertical;" parent="1" source="7baba1c4bc27f4b0-2" edge="1">
          <mxGeometry relative="1" as="geometry">
            <mxPoint x="150" y="240" as="targetPoint" />
            <Array as="points" />
            <mxPoint x="255" y="240" as="sourcePoint" />
          </mxGeometry>
        </mxCell>
        <mxCell id="9s3jjBZ1adouppyQXk-d-10" value="query()" style="html=1;verticalAlign=bottom;endArrow=block;" parent="1" target="7baba1c4bc27f4b0-4" edge="1">
          <mxGeometry width="80" relative="1" as="geometry">
            <mxPoint x="450" y="350" as="sourcePoint" />
            <mxPoint x="530" y="350" as="targetPoint" />
          </mxGeometry>
        </mxCell>
        <mxCell id="9s3jjBZ1adouppyQXk-d-11" value="createCacheKey()" style="html=1;verticalAlign=bottom;endArrow=block;exitX=0.9;exitY=0.322;exitDx=0;exitDy=0;exitPerimeter=0;edgeStyle=orthogonalEdgeStyle;curved=1;entryX=1.1;entryY=0.533;entryDx=0;entryDy=0;entryPerimeter=0;" parent="1" target="7baba1c4bc27f4b0-34" edge="1">
          <mxGeometry x="0.0732" width="80" relative="1" as="geometry">
            <mxPoint x="594" y="360.00000000000006" as="sourcePoint" />
            <mxPoint x="650" y="412.04" as="targetPoint" />
            <Array as="points">
              <mxPoint x="640" y="360.04" />
              <mxPoint x="640" y="398.04" />
            </Array>
            <mxPoint as="offset" />
          </mxGeometry>
        </mxCell>
        <mxCell id="9s3jjBZ1adouppyQXk-d-12" value="" style="html=1;points=[];perimeter=orthogonalPerimeter;rounded=0;shadow=0;comic=0;labelBackgroundColor=none;strokeWidth=1;fontFamily=Verdana;fontSize=12;align=center;" parent="1" vertex="1">
          <mxGeometry x="590" y="462.04" width="10" height="57.96" as="geometry" />
        </mxCell>
        <mxCell id="9s3jjBZ1adouppyQXk-d-13" value="&lt;span style=&quot;color: rgba(0 , 0 , 0 , 0) ; font-family: monospace ; font-size: 0px ; background-color: rgb(248 , 249 , 250)&quot;&gt;%3CmxGraphModel%3E%3Croot%3E%3CmxCell%20id%3D%220%22%2F%3E%3CmxCell%20id%3D%221%22%20parent%3D%220%22%2F%3E%3CmxCell%20id%3D%222%22%20value%3D%22%22%20style%3D%22html%3D1%3Bpoints%3D%5B%5D%3Bperimeter%3DorthogonalPerimeter%3Brounded%3D0%3Bshadow%3D0%3Bcomic%3D0%3BlabelBackgroundColor%3Dnone%3BstrokeWidth%3D1%3BfontFamily%3DVerdana%3BfontSize%3D12%3Balign%3Dcenter%3B%22%20vertex%3D%221%22%20parent%3D%221%22%3E%3CmxGeometry%20x%3D%22590%22%20y%3D%22382.04%22%20width%3D%2210%22%20height%3D%2230%22%20as%3D%22geometry%22%2F%3E%3C%2FmxCell%3E%3CmxCell%20id%3D%223%22%20value%3D%22dispatch%22%20style%3D%22html%3D1%3BverticalAlign%3Dbottom%3BendArrow%3Dblock%3BexitX%3D0.9%3BexitY%3D0.322%3BexitDx%3D0%3BexitDy%3D0%3BexitPerimeter%3D0%3BedgeStyle%3DorthogonalEdgeStyle%3Bcurved%3D1%3BentryX%3D1.1%3BentryY%3D0.533%3BentryDx%3D0%3BentryDy%3D0%3BentryPerimeter%3D0%3B%22%20edge%3D%221%22%20target%3D%222%22%20parent%3D%221%22%3E%3CmxGeometry%20width%3D%2280%22%20relative%3D%221%22%20as%3D%22geometry%22%3E%3CmxPoint%20x%3D%22594%22%20y%3D%22360%22%20as%3D%22sourcePoint%22%2F%3E%3CmxPoint%20x%3D%22650%22%20y%3D%22412.04%22%20as%3D%22targetPoint%22%2F%3E%3CArray%20as%3D%22points%22%3E%3CmxPoint%20x%3D%22640%22%20y%3D%22360.04%22%2F%3E%3CmxPoint%20x%3D%22640%22%20y%3D%22398.04%22%2F%3E%3C%2FArray%3E%3C%2FmxGeometry%3E%3C%2FmxCell%3E%3C%2Froot%3E%3C%2FmxGraphModel%3Ecreted&lt;/span&gt;" style="html=1;verticalAlign=bottom;endArrow=block;exitX=0.9;exitY=0.322;exitDx=0;exitDy=0;exitPerimeter=0;edgeStyle=orthogonalEdgeStyle;curved=1;entryX=1.1;entryY=0.533;entryDx=0;entryDy=0;entryPerimeter=0;" parent="1" target="9s3jjBZ1adouppyQXk-d-12" edge="1">
          <mxGeometry x="-0.0894" width="80" relative="1" as="geometry">
            <mxPoint x="594" y="440" as="sourcePoint" />
            <mxPoint x="650" y="492.04" as="targetPoint" />
            <Array as="points">
              <mxPoint x="640" y="440" />
              <mxPoint x="640" y="493" />
            </Array>
            <mxPoint as="offset" />
          </mxGeometry>
        </mxCell>
        <mxCell id="9s3jjBZ1adouppyQXk-d-14" value="queryFromDatabases()" style="edgeLabel;html=1;align=center;verticalAlign=middle;resizable=0;points=[];" parent="9s3jjBZ1adouppyQXk-d-13" vertex="1" connectable="0">
          <mxGeometry x="-0.4472" y="-3" relative="1" as="geometry">
            <mxPoint x="32" y="7" as="offset" />
          </mxGeometry>
        </mxCell>
        <mxCell id="9s3jjBZ1adouppyQXk-d-18" value="doQuery()" style="html=1;verticalAlign=bottom;endArrow=block;exitX=0.1;exitY=0.31;exitDx=0;exitDy=0;exitPerimeter=0;" parent="1" source="9s3jjBZ1adouppyQXk-d-12" target="7baba1c4bc27f4b0-3" edge="1">
          <mxGeometry width="80" relative="1" as="geometry">
            <mxPoint x="570" y="480" as="sourcePoint" />
            <mxPoint x="650" y="480" as="targetPoint" />
          </mxGeometry>
        </mxCell>
        <mxCell id="9s3jjBZ1adouppyQXk-d-22" value="newStatementHandler()" style="html=1;verticalAlign=bottom;endArrow=block;" parent="1" source="7baba1c4bc27f4b0-3" target="7baba1c4bc27f4b0-2" edge="1">
          <mxGeometry width="80" relative="1" as="geometry">
            <mxPoint x="570" y="480" as="sourcePoint" />
            <mxPoint x="650" y="480" as="targetPoint" />
            <Array as="points">
              <mxPoint x="410" y="490" />
            </Array>
          </mxGeometry>
        </mxCell>
        <mxCell id="9s3jjBZ1adouppyQXk-d-23" value="StatementHandler" style="html=1;verticalAlign=bottom;endArrow=open;dashed=1;endSize=8;" parent="1" edge="1">
          <mxGeometry relative="1" as="geometry">
            <mxPoint x="300" y="560" as="sourcePoint" />
            <mxPoint x="450" y="560" as="targetPoint" />
            <Array as="points">
              <mxPoint x="360" y="560" />
            </Array>
          </mxGeometry>
        </mxCell>
        <mxCell id="9s3jjBZ1adouppyQXk-d-33" value="query()" style="html=1;verticalAlign=bottom;endArrow=block;entryX=0;entryY=0;exitX=1.2;exitY=0.886;exitDx=0;exitDy=0;exitPerimeter=0;" parent="1" source="9s3jjBZ1adouppyQXk-d-35" target="9s3jjBZ1adouppyQXk-d-32" edge="1">
          <mxGeometry relative="1" as="geometry">
            <mxPoint x="470" y="590" as="sourcePoint" />
          </mxGeometry>
        </mxCell>
        <mxCell id="9s3jjBZ1adouppyQXk-d-34" value="List" style="html=1;verticalAlign=bottom;endArrow=open;dashed=1;endSize=8;entryX=1.1;entryY=0.984;entryDx=0;entryDy=0;entryPerimeter=0;" parent="1" edge="1">
          <mxGeometry relative="1" as="geometry">
            <mxPoint x="461" y="670.6399999999999" as="targetPoint" />
            <mxPoint x="725" y="671" as="sourcePoint" />
            <Array as="points">
              <mxPoint x="600" y="671" />
            </Array>
          </mxGeometry>
        </mxCell>
        <mxCell id="9s3jjBZ1adouppyQXk-d-35" value="" style="html=1;points=[];perimeter=orthogonalPerimeter;" parent="1" vertex="1">
          <mxGeometry x="460" y="530" width="10" height="70" as="geometry" />
        </mxCell>
        <mxCell id="9s3jjBZ1adouppyQXk-d-36" value="prepareStatement()" style="edgeStyle=orthogonalEdgeStyle;html=1;align=left;spacingLeft=2;endArrow=block;rounded=0;entryX=1;entryY=0;" parent="1" target="9s3jjBZ1adouppyQXk-d-35" edge="1">
          <mxGeometry relative="1" as="geometry">
            <mxPoint x="465" y="510" as="sourcePoint" />
            <Array as="points">
              <mxPoint x="490" y="510" />
            </Array>
          </mxGeometry>
        </mxCell>
        <mxCell id="9s3jjBZ1adouppyQXk-d-38" value="execute()" style="html=1;verticalAlign=bottom;endArrow=block;entryX=0;entryY=0;" parent="1" target="9s3jjBZ1adouppyQXk-d-37" edge="1">
          <mxGeometry relative="1" as="geometry">
            <mxPoint x="740" y="610" as="sourcePoint" />
          </mxGeometry>
        </mxCell>
        <mxCell id="9s3jjBZ1adouppyQXk-d-39" value="return" style="html=1;verticalAlign=bottom;endArrow=open;dashed=1;endSize=8;exitX=0;exitY=0.95;" parent="1" source="9s3jjBZ1adouppyQXk-d-37" target="7baba1c4bc27f4b0-5" edge="1">
          <mxGeometry x="-0.033" y="-6" relative="1" as="geometry">
            <mxPoint x="796" y="686" as="targetPoint" />
            <mxPoint as="offset" />
          </mxGeometry>
        </mxCell>
        <mxCell id="9s3jjBZ1adouppyQXk-d-41" value="handleResultSets()" style="html=1;verticalAlign=bottom;endArrow=block;entryX=0;entryY=0;" parent="1" source="7baba1c4bc27f4b0-5" target="9s3jjBZ1adouppyQXk-d-40" edge="1">
          <mxGeometry relative="1" as="geometry">
            <mxPoint x="940" y="730" as="sourcePoint" />
          </mxGeometry>
        </mxCell>
        <mxCell id="9s3jjBZ1adouppyQXk-d-42" value="List" style="html=1;verticalAlign=bottom;endArrow=open;dashed=1;endSize=8;exitX=0;exitY=0.95;" parent="1" source="9s3jjBZ1adouppyQXk-d-40" target="7baba1c4bc27f4b0-5" edge="1">
          <mxGeometry relative="1" as="geometry">
            <mxPoint x="940" y="806" as="targetPoint" />
          </mxGeometry>
        </mxCell>
        <mxCell id="9s3jjBZ1adouppyQXk-d-43" value="List" style="html=1;verticalAlign=bottom;endArrow=open;dashed=1;endSize=8;" parent="1" target="7baba1c4bc27f4b0-8" edge="1">
          <mxGeometry relative="1" as="geometry">
            <mxPoint x="450" y="710" as="sourcePoint" />
            <mxPoint x="370" y="710" as="targetPoint" />
          </mxGeometry>
        </mxCell>
        <mxCell id="9s3jjBZ1adouppyQXk-d-44" value="List" style="html=1;verticalAlign=bottom;endArrow=open;dashed=1;endSize=8;" parent="1" edge="1">
          <mxGeometry relative="1" as="geometry">
            <mxPoint x="150" y="760" as="sourcePoint" />
            <mxPoint x="50" y="760" as="targetPoint" />
          </mxGeometry>
        </mxCell>
      </root>
    </mxGraphModel>
  </diagram>
  <diagram id="on3d2Rd0HnhsJHi8617r" name="jdbc_insert">
    <mxGraphModel dx="2249" dy="762" grid="1" gridSize="10" guides="1" tooltips="1" connect="1" arrows="1" fold="1" page="1" pageScale="1" pageWidth="827" pageHeight="1169" math="0" shadow="0">
      <root>
        <mxCell id="K3AEs4OtMo80A7Yk6dfc-0" />
        <mxCell id="K3AEs4OtMo80A7Yk6dfc-1" parent="K3AEs4OtMo80A7Yk6dfc-0" />
        <mxCell id="K3AEs4OtMo80A7Yk6dfc-3" value="" style="shape=umlLifeline;participant=umlActor;perimeter=lifelinePerimeter;whiteSpace=wrap;html=1;container=1;collapsible=0;recursiveResize=0;verticalAlign=top;spacingTop=36;outlineConnect=0;" parent="K3AEs4OtMo80A7Yk6dfc-1" vertex="1">
          <mxGeometry x="-110" y="30" width="20" height="900" as="geometry" />
        </mxCell>
        <mxCell id="K3AEs4OtMo80A7Yk6dfc-5" value="jdbc.properties" style="shape=umlLifeline;perimeter=lifelinePerimeter;whiteSpace=wrap;html=1;container=1;collapsible=0;recursiveResize=0;outlineConnect=0;" parent="K3AEs4OtMo80A7Yk6dfc-1" vertex="1">
          <mxGeometry x="160" y="40" width="100" height="830" as="geometry" />
        </mxCell>
        <mxCell id="K3AEs4OtMo80A7Yk6dfc-28" value="" style="html=1;points=[];perimeter=orthogonalPerimeter;" parent="K3AEs4OtMo80A7Yk6dfc-5" vertex="1">
          <mxGeometry x="44" y="200" width="10" height="80" as="geometry" />
        </mxCell>
        <mxCell id="K3AEs4OtMo80A7Yk6dfc-6" value="java.sql.Connection&lt;br&gt;com.mysql.cj.jdbc.ConnectionImpl" style="shape=umlLifeline;perimeter=lifelinePerimeter;whiteSpace=wrap;html=1;container=1;collapsible=0;recursiveResize=0;outlineConnect=0;" parent="K3AEs4OtMo80A7Yk6dfc-1" vertex="1">
          <mxGeometry x="320" y="40" width="100" height="690" as="geometry" />
        </mxCell>
        <mxCell id="K3AEs4OtMo80A7Yk6dfc-35" value="" style="html=1;points=[];perimeter=orthogonalPerimeter;" parent="K3AEs4OtMo80A7Yk6dfc-6" vertex="1">
          <mxGeometry x="44.5" y="410" width="10" height="270" as="geometry" />
        </mxCell>
        <mxCell id="K3AEs4OtMo80A7Yk6dfc-7" value="java.sql.DriverManager" style="shape=umlLifeline;perimeter=lifelinePerimeter;whiteSpace=wrap;html=1;container=1;collapsible=0;recursiveResize=0;outlineConnect=0;" parent="K3AEs4OtMo80A7Yk6dfc-1" vertex="1">
          <mxGeometry x="490" y="40" width="100" height="770" as="geometry" />
        </mxCell>
        <mxCell id="K3AEs4OtMo80A7Yk6dfc-31" value="" style="html=1;points=[];perimeter=orthogonalPerimeter;" parent="K3AEs4OtMo80A7Yk6dfc-7" vertex="1">
          <mxGeometry x="45" y="320" width="10" height="80" as="geometry" />
        </mxCell>
        <mxCell id="K3AEs4OtMo80A7Yk6dfc-16" value="java.sql.PreparedStatement" style="shape=umlLifeline;perimeter=lifelinePerimeter;whiteSpace=wrap;html=1;container=1;collapsible=0;recursiveResize=0;outlineConnect=0;" parent="K3AEs4OtMo80A7Yk6dfc-1" vertex="1">
          <mxGeometry x="670" y="40" width="100" height="800" as="geometry" />
        </mxCell>
        <mxCell id="K3AEs4OtMo80A7Yk6dfc-22" value="" style="html=1;points=[];perimeter=orthogonalPerimeter;" parent="K3AEs4OtMo80A7Yk6dfc-16" vertex="1">
          <mxGeometry x="45" y="710" width="10" height="80" as="geometry" />
        </mxCell>
        <mxCell id="K3AEs4OtMo80A7Yk6dfc-25" value="update" style="shape=umlLifeline;perimeter=lifelinePerimeter;whiteSpace=wrap;html=1;container=1;collapsible=0;recursiveResize=0;outlineConnect=0;" parent="K3AEs4OtMo80A7Yk6dfc-1" vertex="1">
          <mxGeometry y="40" width="100" height="870" as="geometry" />
        </mxCell>
        <mxCell id="K3AEs4OtMo80A7Yk6dfc-26" value="" style="html=1;points=[];perimeter=orthogonalPerimeter;" parent="K3AEs4OtMo80A7Yk6dfc-25" vertex="1">
          <mxGeometry x="45" y="170" width="10" height="700" as="geometry" />
        </mxCell>
        <mxCell id="zEBJwmISa9FhrUiWDoiy-0" value="" style="html=1;points=[];perimeter=orthogonalPerimeter;" parent="K3AEs4OtMo80A7Yk6dfc-25" vertex="1">
          <mxGeometry x="49" y="820" width="10" height="40" as="geometry" />
        </mxCell>
        <mxCell id="zEBJwmISa9FhrUiWDoiy-1" value="executeUpdate" style="edgeStyle=orthogonalEdgeStyle;html=1;align=left;spacingLeft=2;endArrow=block;rounded=0;entryX=1;entryY=0;" parent="K3AEs4OtMo80A7Yk6dfc-25" target="zEBJwmISa9FhrUiWDoiy-0" edge="1">
          <mxGeometry relative="1" as="geometry">
            <mxPoint x="55" y="800" as="sourcePoint" />
            <Array as="points">
              <mxPoint x="80" y="800" />
            </Array>
          </mxGeometry>
        </mxCell>
        <mxCell id="K3AEs4OtMo80A7Yk6dfc-27" value="update()" style="html=1;verticalAlign=bottom;startArrow=oval;endArrow=block;startSize=8;" parent="K3AEs4OtMo80A7Yk6dfc-1" edge="1">
          <mxGeometry relative="1" as="geometry">
            <mxPoint x="-100.5" y="210" as="sourcePoint" />
            <mxPoint x="49.5" y="210" as="targetPoint" />
            <Array as="points">
              <mxPoint y="210" />
            </Array>
          </mxGeometry>
        </mxCell>
        <mxCell id="K3AEs4OtMo80A7Yk6dfc-29" value="getResourceAsStream()" style="html=1;verticalAlign=bottom;endArrow=block;entryX=0;entryY=0;" parent="K3AEs4OtMo80A7Yk6dfc-1" source="K3AEs4OtMo80A7Yk6dfc-26" target="K3AEs4OtMo80A7Yk6dfc-28" edge="1">
          <mxGeometry relative="1" as="geometry">
            <mxPoint x="134" y="240" as="sourcePoint" />
          </mxGeometry>
        </mxCell>
        <mxCell id="K3AEs4OtMo80A7Yk6dfc-30" value="Properties" style="html=1;verticalAlign=bottom;endArrow=open;dashed=1;endSize=8;exitX=0;exitY=0.95;" parent="K3AEs4OtMo80A7Yk6dfc-1" source="K3AEs4OtMo80A7Yk6dfc-28" target="K3AEs4OtMo80A7Yk6dfc-25" edge="1">
          <mxGeometry relative="1" as="geometry">
            <mxPoint x="134" y="316" as="targetPoint" />
          </mxGeometry>
        </mxCell>
        <mxCell id="K3AEs4OtMo80A7Yk6dfc-8" value="" style="html=1;points=[];perimeter=orthogonalPerimeter;" parent="K3AEs4OtMo80A7Yk6dfc-1" vertex="1">
          <mxGeometry x="536" y="490" width="10" height="137" as="geometry" />
        </mxCell>
        <mxCell id="K3AEs4OtMo80A7Yk6dfc-20" value="" style="html=1;points=[];perimeter=orthogonalPerimeter;" parent="K3AEs4OtMo80A7Yk6dfc-1" vertex="1">
          <mxGeometry x="540" y="527" width="10" height="40" as="geometry" />
        </mxCell>
        <mxCell id="K3AEs4OtMo80A7Yk6dfc-21" value="getConnection()" style="edgeStyle=orthogonalEdgeStyle;html=1;align=left;spacingLeft=2;endArrow=block;rounded=0;entryX=1;entryY=0;" parent="K3AEs4OtMo80A7Yk6dfc-1" target="K3AEs4OtMo80A7Yk6dfc-20" edge="1">
          <mxGeometry relative="1" as="geometry">
            <mxPoint x="545" y="507" as="sourcePoint" />
            <Array as="points">
              <mxPoint x="570" y="507" />
            </Array>
          </mxGeometry>
        </mxCell>
        <mxCell id="K3AEs4OtMo80A7Yk6dfc-10" value="Connection" style="html=1;verticalAlign=bottom;endArrow=open;dashed=1;endSize=8;exitX=0;exitY=0.95;" parent="K3AEs4OtMo80A7Yk6dfc-1" source="K3AEs4OtMo80A7Yk6dfc-8" edge="1">
          <mxGeometry relative="1" as="geometry">
            <mxPoint x="369.5" y="620.1500000000001" as="targetPoint" />
          </mxGeometry>
        </mxCell>
        <mxCell id="K3AEs4OtMo80A7Yk6dfc-9" value="&lt;span style=&quot;text-align: left&quot;&gt;getConnection()&lt;/span&gt;" style="html=1;verticalAlign=bottom;endArrow=block;entryX=0;entryY=0;" parent="K3AEs4OtMo80A7Yk6dfc-1" source="K3AEs4OtMo80A7Yk6dfc-35" target="K3AEs4OtMo80A7Yk6dfc-8" edge="1">
          <mxGeometry relative="1" as="geometry">
            <mxPoint x="369.5" y="490.0000000000002" as="sourcePoint" />
          </mxGeometry>
        </mxCell>
        <mxCell id="K3AEs4OtMo80A7Yk6dfc-23" value="prepareStatement()" style="html=1;verticalAlign=bottom;endArrow=block;entryX=0;entryY=0;" parent="K3AEs4OtMo80A7Yk6dfc-1" source="K3AEs4OtMo80A7Yk6dfc-25" target="K3AEs4OtMo80A7Yk6dfc-22" edge="1">
          <mxGeometry relative="1" as="geometry">
            <mxPoint x="369.5" y="707" as="sourcePoint" />
          </mxGeometry>
        </mxCell>
        <mxCell id="K3AEs4OtMo80A7Yk6dfc-24" value="ps" style="html=1;verticalAlign=bottom;endArrow=open;dashed=1;endSize=8;exitX=0;exitY=0.95;" parent="K3AEs4OtMo80A7Yk6dfc-1" source="K3AEs4OtMo80A7Yk6dfc-22" target="K3AEs4OtMo80A7Yk6dfc-25" edge="1">
          <mxGeometry relative="1" as="geometry">
            <mxPoint x="369.5" y="783" as="targetPoint" />
            <Array as="points">
              <mxPoint x="710" y="800" />
              <mxPoint x="380" y="800" />
            </Array>
          </mxGeometry>
        </mxCell>
        <mxCell id="K3AEs4OtMo80A7Yk6dfc-32" value="DriverManager.registerDriver(driver)" style="html=1;verticalAlign=bottom;endArrow=block;entryX=0;entryY=0;" parent="K3AEs4OtMo80A7Yk6dfc-1" source="K3AEs4OtMo80A7Yk6dfc-25" target="K3AEs4OtMo80A7Yk6dfc-31" edge="1">
          <mxGeometry relative="1" as="geometry">
            <mxPoint x="465" y="360" as="sourcePoint" />
          </mxGeometry>
        </mxCell>
        <mxCell id="K3AEs4OtMo80A7Yk6dfc-33" value="DriverManager" style="html=1;verticalAlign=bottom;endArrow=open;dashed=1;endSize=8;exitX=0;exitY=0.95;" parent="K3AEs4OtMo80A7Yk6dfc-1" source="K3AEs4OtMo80A7Yk6dfc-31" target="K3AEs4OtMo80A7Yk6dfc-25" edge="1">
          <mxGeometry relative="1" as="geometry">
            <mxPoint x="465" y="436" as="targetPoint" />
          </mxGeometry>
        </mxCell>
        <mxCell id="K3AEs4OtMo80A7Yk6dfc-36" value="&lt;span style=&quot;text-align: left&quot;&gt;getConnection()&lt;/span&gt;" style="html=1;verticalAlign=bottom;endArrow=block;entryX=0;entryY=0;" parent="K3AEs4OtMo80A7Yk6dfc-1" source="K3AEs4OtMo80A7Yk6dfc-25" target="K3AEs4OtMo80A7Yk6dfc-35" edge="1">
          <mxGeometry relative="1" as="geometry">
            <mxPoint x="294.5" y="450.0000000000002" as="sourcePoint" />
          </mxGeometry>
        </mxCell>
        <mxCell id="K3AEs4OtMo80A7Yk6dfc-37" value="Connection" style="html=1;verticalAlign=bottom;endArrow=open;dashed=1;endSize=8;exitX=0;exitY=0.95;" parent="K3AEs4OtMo80A7Yk6dfc-1" source="K3AEs4OtMo80A7Yk6dfc-35" target="K3AEs4OtMo80A7Yk6dfc-25" edge="1">
          <mxGeometry relative="1" as="geometry">
            <mxPoint x="294.5" y="526.0000000000002" as="targetPoint" />
          </mxGeometry>
        </mxCell>
        <mxCell id="zEBJwmISa9FhrUiWDoiy-2" value="result" style="html=1;verticalAlign=bottom;endArrow=open;dashed=1;endSize=8;" parent="K3AEs4OtMo80A7Yk6dfc-1" target="K3AEs4OtMo80A7Yk6dfc-3" edge="1">
          <mxGeometry relative="1" as="geometry">
            <mxPoint x="50" y="900" as="sourcePoint" />
            <mxPoint x="-30" y="900" as="targetPoint" />
          </mxGeometry>
        </mxCell>
      </root>
    </mxGraphModel>
  </diagram>
  <diagram id="8oCVKEbi7Exw9q5_UwAX" name="JDBCTemplate">
    <mxGraphModel dx="1422" dy="762" grid="1" gridSize="10" guides="1" tooltips="1" connect="1" arrows="1" fold="1" page="1" pageScale="1" pageWidth="827" pageHeight="1169" math="0" shadow="0">
      <root>
        <mxCell id="U4kHPg3xJFJ8h-syUiCk-0" />
        <mxCell id="U4kHPg3xJFJ8h-syUiCk-1" parent="U4kHPg3xJFJ8h-syUiCk-0" />
        <mxCell id="U4kHPg3xJFJ8h-syUiCk-2" value="" style="rounded=0;whiteSpace=wrap;html=1;" parent="U4kHPg3xJFJ8h-syUiCk-1" vertex="1">
          <mxGeometry x="80" y="170" width="120" height="60" as="geometry" />
        </mxCell>
      </root>
    </mxGraphModel>
  </diagram>
  <diagram id="gfMr6l5XtXxDARQZ3Gao" name="compare_all">
    <mxGraphModel dx="2249" dy="762" grid="1" gridSize="10" guides="1" tooltips="1" connect="1" arrows="1" fold="1" page="1" pageScale="1" pageWidth="827" pageHeight="1169" math="0" shadow="0">
      <root>
        <mxCell id="G9gXlNT_TF41lu5xVbCk-0" />
        <mxCell id="G9gXlNT_TF41lu5xVbCk-1" parent="G9gXlNT_TF41lu5xVbCk-0" />
        <mxCell id="G9gXlNT_TF41lu5xVbCk-2" value="" style="shape=table;html=1;whiteSpace=wrap;startSize=0;container=1;collapsible=0;childLayout=tableLayout;" parent="G9gXlNT_TF41lu5xVbCk-1" vertex="1">
          <mxGeometry x="-650" y="200" width="770" height="330" as="geometry" />
        </mxCell>
        <mxCell id="G9gXlNT_TF41lu5xVbCk-3" value="" style="shape=partialRectangle;html=1;whiteSpace=wrap;collapsible=0;dropTarget=0;pointerEvents=0;fillColor=none;top=0;left=0;bottom=0;right=0;points=[[0,0.5],[1,0.5]];portConstraint=eastwest;" parent="G9gXlNT_TF41lu5xVbCk-2" vertex="1">
          <mxGeometry width="770" height="40" as="geometry" />
        </mxCell>
        <mxCell id="G9gXlNT_TF41lu5xVbCk-65" style="shape=partialRectangle;html=1;whiteSpace=wrap;connectable=0;fillColor=none;top=0;left=0;bottom=0;right=0;overflow=hidden;" parent="G9gXlNT_TF41lu5xVbCk-3" vertex="1">
          <mxGeometry width="190" height="40" as="geometry" />
        </mxCell>
        <mxCell id="G9gXlNT_TF41lu5xVbCk-4" value="JDBC" style="shape=partialRectangle;html=1;whiteSpace=wrap;connectable=0;fillColor=none;top=0;left=0;bottom=0;right=0;overflow=hidden;" parent="G9gXlNT_TF41lu5xVbCk-3" vertex="1">
          <mxGeometry x="190" width="190" height="40" as="geometry" />
        </mxCell>
        <mxCell id="G9gXlNT_TF41lu5xVbCk-5" value="mybaits" style="shape=partialRectangle;html=1;whiteSpace=wrap;connectable=0;fillColor=none;top=0;left=0;bottom=0;right=0;overflow=hidden;" parent="G9gXlNT_TF41lu5xVbCk-3" vertex="1">
          <mxGeometry x="380" width="190" height="40" as="geometry" />
        </mxCell>
        <mxCell id="G9gXlNT_TF41lu5xVbCk-62" value="&lt;span&gt;Springdata jpa&lt;/span&gt;" style="shape=partialRectangle;html=1;whiteSpace=wrap;connectable=0;fillColor=none;top=0;left=0;bottom=0;right=0;overflow=hidden;" parent="G9gXlNT_TF41lu5xVbCk-3" vertex="1">
          <mxGeometry x="570" width="200" height="40" as="geometry" />
        </mxCell>
        <mxCell id="G9gXlNT_TF41lu5xVbCk-7" value="" style="shape=partialRectangle;html=1;whiteSpace=wrap;collapsible=0;dropTarget=0;pointerEvents=0;fillColor=none;top=0;left=0;bottom=0;right=0;points=[[0,0.5],[1,0.5]];portConstraint=eastwest;flipV=1;" parent="G9gXlNT_TF41lu5xVbCk-2" vertex="1">
          <mxGeometry y="40" width="770" height="56" as="geometry" />
        </mxCell>
        <mxCell id="G9gXlNT_TF41lu5xVbCk-66" value="效率" style="shape=partialRectangle;html=1;whiteSpace=wrap;connectable=0;fillColor=none;top=0;left=0;bottom=0;right=0;overflow=hidden;" parent="G9gXlNT_TF41lu5xVbCk-7" vertex="1">
          <mxGeometry width="190" height="56" as="geometry" />
        </mxCell>
        <mxCell id="G9gXlNT_TF41lu5xVbCk-8" value="高" style="shape=partialRectangle;html=1;whiteSpace=wrap;connectable=0;fillColor=none;top=0;left=0;bottom=0;right=0;overflow=hidden;" parent="G9gXlNT_TF41lu5xVbCk-7" vertex="1">
          <mxGeometry x="190" width="190" height="56" as="geometry" />
        </mxCell>
        <mxCell id="G9gXlNT_TF41lu5xVbCk-9" value="一般" style="shape=partialRectangle;html=1;whiteSpace=wrap;connectable=0;fillColor=none;top=0;left=0;bottom=0;right=0;overflow=hidden;" parent="G9gXlNT_TF41lu5xVbCk-7" vertex="1">
          <mxGeometry x="380" width="190" height="56" as="geometry" />
        </mxCell>
        <mxCell id="G9gXlNT_TF41lu5xVbCk-63" value="低" style="shape=partialRectangle;html=1;whiteSpace=wrap;connectable=0;fillColor=none;top=0;left=0;bottom=0;right=0;overflow=hidden;" parent="G9gXlNT_TF41lu5xVbCk-7" vertex="1">
          <mxGeometry x="570" width="200" height="56" as="geometry" />
        </mxCell>
        <mxCell id="G9gXlNT_TF41lu5xVbCk-11" value="" style="shape=partialRectangle;html=1;whiteSpace=wrap;collapsible=0;dropTarget=0;pointerEvents=0;fillColor=none;top=0;left=0;bottom=0;right=0;points=[[0,0.5],[1,0.5]];portConstraint=eastwest;" parent="G9gXlNT_TF41lu5xVbCk-2" vertex="1">
          <mxGeometry y="96" width="770" height="117" as="geometry" />
        </mxCell>
        <mxCell id="G9gXlNT_TF41lu5xVbCk-67" value="缺点" style="shape=partialRectangle;html=1;whiteSpace=wrap;connectable=0;fillColor=none;top=0;left=0;bottom=0;right=0;overflow=hidden;" parent="G9gXlNT_TF41lu5xVbCk-11" vertex="1">
          <mxGeometry width="190" height="117" as="geometry" />
        </mxCell>
        <mxCell id="G9gXlNT_TF41lu5xVbCk-12" value="&lt;div style=&quot;text-align: left&quot;&gt;&lt;span&gt;sql硬编码到java代码&lt;/span&gt;&lt;/div&gt;&lt;div style=&quot;text-align: left&quot;&gt;&lt;span&gt;硬编码获取表数据的映射(ORM)&lt;br&gt;&lt;/span&gt;&lt;/div&gt;&lt;div style=&quot;text-align: left&quot;&gt;手动维护链接&lt;/div&gt;&lt;div style=&quot;text-align: justify&quot;&gt;&lt;/div&gt;" style="shape=partialRectangle;html=1;whiteSpace=wrap;connectable=0;fillColor=none;top=0;left=0;bottom=0;right=0;overflow=hidden;" parent="G9gXlNT_TF41lu5xVbCk-11" vertex="1">
          <mxGeometry x="190" width="190" height="117" as="geometry" />
        </mxCell>
        <mxCell id="G9gXlNT_TF41lu5xVbCk-13" value="维护和编写sql&lt;br&gt;&lt;div style=&quot;text-align: left&quot;&gt;&lt;span&gt;可移植性差&lt;/span&gt;&lt;/div&gt;" style="shape=partialRectangle;html=1;whiteSpace=wrap;connectable=0;fillColor=none;top=0;left=0;bottom=0;right=0;overflow=hidden;" parent="G9gXlNT_TF41lu5xVbCk-11" vertex="1">
          <mxGeometry x="380" width="190" height="117" as="geometry" />
        </mxCell>
        <mxCell id="G9gXlNT_TF41lu5xVbCk-64" value="对象级联操作" style="shape=partialRectangle;html=1;whiteSpace=wrap;connectable=0;fillColor=none;top=0;left=0;bottom=0;right=0;overflow=hidden;" parent="G9gXlNT_TF41lu5xVbCk-11" vertex="1">
          <mxGeometry x="570" width="200" height="117" as="geometry" />
        </mxCell>
        <mxCell id="3NMpVCJHfMFbJTmnz2SG-17" style="shape=partialRectangle;html=1;whiteSpace=wrap;collapsible=0;dropTarget=0;pointerEvents=0;fillColor=none;top=0;left=0;bottom=0;right=0;points=[[0,0.5],[1,0.5]];portConstraint=eastwest;" vertex="1" parent="G9gXlNT_TF41lu5xVbCk-2">
          <mxGeometry y="213" width="770" height="117" as="geometry" />
        </mxCell>
        <mxCell id="3NMpVCJHfMFbJTmnz2SG-18" value="优点" style="shape=partialRectangle;html=1;whiteSpace=wrap;connectable=0;fillColor=none;top=0;left=0;bottom=0;right=0;overflow=hidden;" vertex="1" parent="3NMpVCJHfMFbJTmnz2SG-17">
          <mxGeometry width="190" height="117" as="geometry" />
        </mxCell>
        <mxCell id="3NMpVCJHfMFbJTmnz2SG-19" value="直接操作数据库,效率高" style="shape=partialRectangle;html=1;whiteSpace=wrap;connectable=0;fillColor=none;top=0;left=0;bottom=0;right=0;overflow=hidden;" vertex="1" parent="3NMpVCJHfMFbJTmnz2SG-17">
          <mxGeometry x="190" width="190" height="117" as="geometry" />
        </mxCell>
        <mxCell id="3NMpVCJHfMFbJTmnz2SG-20" value="sql和项目解耦,便于统一管理和优化&lt;br&gt;逆向工程&lt;br&gt;动态SQL" style="shape=partialRectangle;html=1;whiteSpace=wrap;connectable=0;fillColor=none;top=0;left=0;bottom=0;right=0;overflow=hidden;" vertex="1" parent="3NMpVCJHfMFbJTmnz2SG-17">
          <mxGeometry x="380" width="190" height="117" as="geometry" />
        </mxCell>
        <mxCell id="3NMpVCJHfMFbJTmnz2SG-21" value="不用写SQL,项目易管理&lt;br&gt;对象关系维护友好&lt;br&gt;自动化高" style="shape=partialRectangle;html=1;whiteSpace=wrap;connectable=0;fillColor=none;top=0;left=0;bottom=0;right=0;overflow=hidden;" vertex="1" parent="3NMpVCJHfMFbJTmnz2SG-17">
          <mxGeometry x="570" width="200" height="117" as="geometry" />
        </mxCell>
      </root>
    </mxGraphModel>
  </diagram>
  <diagram id="9slMG4XuWqQuWdRaqBdU" name="Mybatis文件流程">
    <mxGraphModel dx="1422" dy="762" grid="1" gridSize="10" guides="1" tooltips="1" connect="1" arrows="1" fold="1" page="1" pageScale="1" pageWidth="827" pageHeight="1169" math="0" shadow="0">
      <root>
        <mxCell id="v5615J9yaTu8xqKB0B-G-0" />
        <mxCell id="v5615J9yaTu8xqKB0B-G-1" parent="v5615J9yaTu8xqKB0B-G-0" />
        <mxCell id="v5615J9yaTu8xqKB0B-G-2" value="" style="edgeStyle=orthogonalEdgeStyle;rounded=0;orthogonalLoop=1;jettySize=auto;html=1;" parent="v5615J9yaTu8xqKB0B-G-1" source="v5615J9yaTu8xqKB0B-G-3" target="v5615J9yaTu8xqKB0B-G-7" edge="1">
          <mxGeometry relative="1" as="geometry" />
        </mxCell>
        <mxCell id="v5615J9yaTu8xqKB0B-G-3" value="" style="rounded=1;whiteSpace=wrap;html=1;" parent="v5615J9yaTu8xqKB0B-G-1" vertex="1">
          <mxGeometry x="290" y="110" width="410" height="200" as="geometry" />
        </mxCell>
        <mxCell id="v5615J9yaTu8xqKB0B-G-4" value="SqlMapConfig.xml" style="rounded=0;whiteSpace=wrap;html=1;" parent="v5615J9yaTu8xqKB0B-G-1" vertex="1">
          <mxGeometry x="435" y="150" width="120" height="60" as="geometry" />
        </mxCell>
        <mxCell id="v5615J9yaTu8xqKB0B-G-5" value="com/nari/dao/IUserDao.xml" style="rounded=0;whiteSpace=wrap;html=1;" parent="v5615J9yaTu8xqKB0B-G-1" vertex="1">
          <mxGeometry x="385" y="230" width="220" height="60" as="geometry" />
        </mxCell>
        <mxCell id="v5615J9yaTu8xqKB0B-G-6" value="" style="edgeStyle=orthogonalEdgeStyle;rounded=0;orthogonalLoop=1;jettySize=auto;html=1;" parent="v5615J9yaTu8xqKB0B-G-1" source="v5615J9yaTu8xqKB0B-G-7" target="v5615J9yaTu8xqKB0B-G-10" edge="1">
          <mxGeometry relative="1" as="geometry" />
        </mxCell>
        <mxCell id="v5615J9yaTu8xqKB0B-G-7" value="SqlSessionFactory" style="rounded=1;whiteSpace=wrap;html=1;" parent="v5615J9yaTu8xqKB0B-G-1" vertex="1">
          <mxGeometry x="435" y="350" width="120" height="60" as="geometry" />
        </mxCell>
        <mxCell id="v5615J9yaTu8xqKB0B-G-8" value="Mybatis配置文件" style="text;html=1;strokeColor=none;fillColor=none;align=center;verticalAlign=middle;whiteSpace=wrap;rounded=0;" parent="v5615J9yaTu8xqKB0B-G-1" vertex="1">
          <mxGeometry x="440" y="120" width="100" height="20" as="geometry" />
        </mxCell>
        <mxCell id="v5615J9yaTu8xqKB0B-G-9" value="" style="edgeStyle=orthogonalEdgeStyle;rounded=0;orthogonalLoop=1;jettySize=auto;html=1;" parent="v5615J9yaTu8xqKB0B-G-1" source="v5615J9yaTu8xqKB0B-G-10" target="v5615J9yaTu8xqKB0B-G-12" edge="1">
          <mxGeometry relative="1" as="geometry" />
        </mxCell>
        <mxCell id="v5615J9yaTu8xqKB0B-G-10" value="SqlSession" style="rounded=1;whiteSpace=wrap;html=1;" parent="v5615J9yaTu8xqKB0B-G-1" vertex="1">
          <mxGeometry x="435" y="450" width="120" height="60" as="geometry" />
        </mxCell>
        <mxCell id="v5615J9yaTu8xqKB0B-G-11" value="" style="edgeStyle=orthogonalEdgeStyle;rounded=0;orthogonalLoop=1;jettySize=auto;html=1;" parent="v5615J9yaTu8xqKB0B-G-1" source="v5615J9yaTu8xqKB0B-G-12" target="v5615J9yaTu8xqKB0B-G-15" edge="1">
          <mxGeometry relative="1" as="geometry" />
        </mxCell>
        <mxCell id="v5615J9yaTu8xqKB0B-G-12" value="Executor" style="rounded=1;whiteSpace=wrap;html=1;" parent="v5615J9yaTu8xqKB0B-G-1" vertex="1">
          <mxGeometry x="435" y="550" width="120" height="60" as="geometry" />
        </mxCell>
        <mxCell id="v5615J9yaTu8xqKB0B-G-13" value="" style="edgeStyle=orthogonalEdgeStyle;rounded=0;orthogonalLoop=1;jettySize=auto;html=1;" parent="v5615J9yaTu8xqKB0B-G-1" source="v5615J9yaTu8xqKB0B-G-15" target="v5615J9yaTu8xqKB0B-G-30" edge="1">
          <mxGeometry relative="1" as="geometry" />
        </mxCell>
        <mxCell id="v5615J9yaTu8xqKB0B-G-14" style="edgeStyle=orthogonalEdgeStyle;rounded=0;orthogonalLoop=1;jettySize=auto;html=1;entryX=0;entryY=0.5;entryDx=0;entryDy=0;" parent="v5615J9yaTu8xqKB0B-G-1" source="v5615J9yaTu8xqKB0B-G-15" target="v5615J9yaTu8xqKB0B-G-24" edge="1">
          <mxGeometry relative="1" as="geometry">
            <mxPoint x="720" y="670" as="targetPoint" />
          </mxGeometry>
        </mxCell>
        <mxCell id="v5615J9yaTu8xqKB0B-G-15" value="MappedStatement" style="rounded=1;whiteSpace=wrap;html=1;" parent="v5615J9yaTu8xqKB0B-G-1" vertex="1">
          <mxGeometry x="435" y="650" width="120" height="60" as="geometry" />
        </mxCell>
        <mxCell id="v5615J9yaTu8xqKB0B-G-16" value="" style="group" parent="v5615J9yaTu8xqKB0B-G-1" vertex="1" connectable="0">
          <mxGeometry x="170" y="580" width="120" height="200" as="geometry" />
        </mxCell>
        <mxCell id="v5615J9yaTu8xqKB0B-G-17" value="" style="rounded=1;whiteSpace=wrap;html=1;" parent="v5615J9yaTu8xqKB0B-G-16" vertex="1">
          <mxGeometry width="120" height="200" as="geometry" />
        </mxCell>
        <mxCell id="v5615J9yaTu8xqKB0B-G-18" value="输入映射" style="text;html=1;strokeColor=none;fillColor=none;align=center;verticalAlign=middle;whiteSpace=wrap;rounded=0;" parent="v5615J9yaTu8xqKB0B-G-16" vertex="1">
          <mxGeometry x="35" y="10" width="50" height="20" as="geometry" />
        </mxCell>
        <mxCell id="v5615J9yaTu8xqKB0B-G-19" value="Map" style="rounded=0;whiteSpace=wrap;html=1;" parent="v5615J9yaTu8xqKB0B-G-16" vertex="1">
          <mxGeometry x="30" y="45" width="60" height="30" as="geometry" />
        </mxCell>
        <mxCell id="v5615J9yaTu8xqKB0B-G-20" value="String,Interger等基础数据类型" style="rounded=0;whiteSpace=wrap;html=1;" parent="v5615J9yaTu8xqKB0B-G-16" vertex="1">
          <mxGeometry x="25" y="90" width="80" height="40" as="geometry" />
        </mxCell>
        <mxCell id="v5615J9yaTu8xqKB0B-G-21" value="Pojo" style="rounded=0;whiteSpace=wrap;html=1;" parent="v5615J9yaTu8xqKB0B-G-16" vertex="1">
          <mxGeometry x="25" y="150" width="70" height="30" as="geometry" />
        </mxCell>
        <mxCell id="v5615J9yaTu8xqKB0B-G-22" style="edgeStyle=orthogonalEdgeStyle;rounded=0;orthogonalLoop=1;jettySize=auto;html=1;exitX=0.5;exitY=1;exitDx=0;exitDy=0;" parent="v5615J9yaTu8xqKB0B-G-16" source="v5615J9yaTu8xqKB0B-G-21" target="v5615J9yaTu8xqKB0B-G-21" edge="1">
          <mxGeometry relative="1" as="geometry" />
        </mxCell>
        <mxCell id="v5615J9yaTu8xqKB0B-G-23" value="" style="group" parent="v5615J9yaTu8xqKB0B-G-1" vertex="1" connectable="0">
          <mxGeometry x="740" y="580" width="120" height="200" as="geometry" />
        </mxCell>
        <mxCell id="v5615J9yaTu8xqKB0B-G-24" value="" style="rounded=1;whiteSpace=wrap;html=1;" parent="v5615J9yaTu8xqKB0B-G-23" vertex="1">
          <mxGeometry width="120" height="200" as="geometry" />
        </mxCell>
        <mxCell id="v5615J9yaTu8xqKB0B-G-25" value="输入映射" style="text;html=1;strokeColor=none;fillColor=none;align=center;verticalAlign=middle;whiteSpace=wrap;rounded=0;" parent="v5615J9yaTu8xqKB0B-G-23" vertex="1">
          <mxGeometry x="35" y="10" width="50" height="20" as="geometry" />
        </mxCell>
        <mxCell id="v5615J9yaTu8xqKB0B-G-26" value="Map" style="rounded=0;whiteSpace=wrap;html=1;" parent="v5615J9yaTu8xqKB0B-G-23" vertex="1">
          <mxGeometry x="30" y="45" width="60" height="30" as="geometry" />
        </mxCell>
        <mxCell id="v5615J9yaTu8xqKB0B-G-27" value="String,Interger等基础数据类型" style="rounded=0;whiteSpace=wrap;html=1;" parent="v5615J9yaTu8xqKB0B-G-23" vertex="1">
          <mxGeometry x="25" y="90" width="80" height="40" as="geometry" />
        </mxCell>
        <mxCell id="v5615J9yaTu8xqKB0B-G-28" value="Pojo" style="rounded=0;whiteSpace=wrap;html=1;" parent="v5615J9yaTu8xqKB0B-G-23" vertex="1">
          <mxGeometry x="25" y="150" width="70" height="30" as="geometry" />
        </mxCell>
        <mxCell id="v5615J9yaTu8xqKB0B-G-29" style="edgeStyle=orthogonalEdgeStyle;rounded=0;orthogonalLoop=1;jettySize=auto;html=1;exitX=0.5;exitY=1;exitDx=0;exitDy=0;" parent="v5615J9yaTu8xqKB0B-G-23" source="v5615J9yaTu8xqKB0B-G-28" target="v5615J9yaTu8xqKB0B-G-28" edge="1">
          <mxGeometry relative="1" as="geometry" />
        </mxCell>
        <mxCell id="v5615J9yaTu8xqKB0B-G-30" value="数据库" style="shape=cylinder3;whiteSpace=wrap;html=1;boundedLbl=1;backgroundOutline=1;size=15;" parent="v5615J9yaTu8xqKB0B-G-1" vertex="1">
          <mxGeometry x="465" y="770" width="60" height="80" as="geometry" />
        </mxCell>
        <mxCell id="v5615J9yaTu8xqKB0B-G-31" style="edgeStyle=orthogonalEdgeStyle;rounded=0;orthogonalLoop=1;jettySize=auto;html=1;exitX=1;exitY=0.5;exitDx=0;exitDy=0;entryX=0;entryY=0.5;entryDx=0;entryDy=0;" parent="v5615J9yaTu8xqKB0B-G-1" source="v5615J9yaTu8xqKB0B-G-17" target="v5615J9yaTu8xqKB0B-G-15" edge="1">
          <mxGeometry relative="1" as="geometry" />
        </mxCell>
      </root>
    </mxGraphModel>
  </diagram>
  <diagram id="vnZE8VQbwbipMxWhuHXv" name="JDBC原理">
    <mxGraphModel dx="1422" dy="762" grid="1" gridSize="10" guides="1" tooltips="1" connect="1" arrows="1" fold="1" page="1" pageScale="1" pageWidth="827" pageHeight="1169" math="0" shadow="0">
      <root>
        <mxCell id="DNJ_wXoavEvFbaRkYzXb-0" />
        <mxCell id="DNJ_wXoavEvFbaRkYzXb-1" parent="DNJ_wXoavEvFbaRkYzXb-0" />
        <mxCell id="Kr8SvhcPyJ96pY6L8qH0-9" value="" style="edgeStyle=orthogonalEdgeStyle;rounded=0;orthogonalLoop=1;jettySize=auto;html=1;" parent="DNJ_wXoavEvFbaRkYzXb-1" source="DNJ_wXoavEvFbaRkYzXb-2" target="DNJ_wXoavEvFbaRkYzXb-3" edge="1">
          <mxGeometry relative="1" as="geometry" />
        </mxCell>
        <mxCell id="DNJ_wXoavEvFbaRkYzXb-2" value="JAVA应用程序" style="rounded=1;whiteSpace=wrap;html=1;" parent="DNJ_wXoavEvFbaRkYzXb-1" vertex="1">
          <mxGeometry x="354" y="150" width="120" height="60" as="geometry" />
        </mxCell>
        <mxCell id="Kr8SvhcPyJ96pY6L8qH0-10" value="" style="edgeStyle=orthogonalEdgeStyle;rounded=0;orthogonalLoop=1;jettySize=auto;html=1;curved=1;" parent="DNJ_wXoavEvFbaRkYzXb-1" source="DNJ_wXoavEvFbaRkYzXb-3" target="Kr8SvhcPyJ96pY6L8qH0-7" edge="1">
          <mxGeometry relative="1" as="geometry" />
        </mxCell>
        <mxCell id="Kr8SvhcPyJ96pY6L8qH0-11" style="edgeStyle=orthogonalEdgeStyle;curved=1;rounded=0;orthogonalLoop=1;jettySize=auto;html=1;" parent="DNJ_wXoavEvFbaRkYzXb-1" source="DNJ_wXoavEvFbaRkYzXb-3" target="Kr8SvhcPyJ96pY6L8qH0-5" edge="1">
          <mxGeometry relative="1" as="geometry" />
        </mxCell>
        <mxCell id="Kr8SvhcPyJ96pY6L8qH0-12" style="edgeStyle=orthogonalEdgeStyle;curved=1;rounded=0;orthogonalLoop=1;jettySize=auto;html=1;" parent="DNJ_wXoavEvFbaRkYzXb-1" source="DNJ_wXoavEvFbaRkYzXb-3" edge="1">
          <mxGeometry relative="1" as="geometry">
            <mxPoint x="340" y="410" as="targetPoint" />
          </mxGeometry>
        </mxCell>
        <mxCell id="Kr8SvhcPyJ96pY6L8qH0-13" style="edgeStyle=orthogonalEdgeStyle;curved=1;rounded=0;orthogonalLoop=1;jettySize=auto;html=1;" parent="DNJ_wXoavEvFbaRkYzXb-1" source="DNJ_wXoavEvFbaRkYzXb-3" target="Kr8SvhcPyJ96pY6L8qH0-8" edge="1">
          <mxGeometry relative="1" as="geometry" />
        </mxCell>
        <mxCell id="DNJ_wXoavEvFbaRkYzXb-3" value="JDBC: SUN公司定义的一组接口规范" style="rounded=1;whiteSpace=wrap;html=1;" parent="DNJ_wXoavEvFbaRkYzXb-1" vertex="1">
          <mxGeometry x="129" y="270" width="570" height="60" as="geometry" />
        </mxCell>
        <mxCell id="Kr8SvhcPyJ96pY6L8qH0-2" value="SQLServer" style="shape=cylinder3;whiteSpace=wrap;html=1;boundedLbl=1;backgroundOutline=1;size=15;shadow=0;" parent="DNJ_wXoavEvFbaRkYzXb-1" vertex="1">
          <mxGeometry x="480" y="570" width="60" height="80" as="geometry" />
        </mxCell>
        <mxCell id="Kr8SvhcPyJ96pY6L8qH0-0" value="Mysql" style="shape=cylinder3;whiteSpace=wrap;html=1;boundedLbl=1;backgroundOutline=1;size=15;shadow=0;" parent="DNJ_wXoavEvFbaRkYzXb-1" vertex="1">
          <mxGeometry x="100" y="570" width="60" height="80" as="geometry" />
        </mxCell>
        <mxCell id="Kr8SvhcPyJ96pY6L8qH0-1" value="Oracle" style="shape=cylinder3;whiteSpace=wrap;html=1;boundedLbl=1;backgroundOutline=1;size=15;shadow=0;" parent="DNJ_wXoavEvFbaRkYzXb-1" vertex="1">
          <mxGeometry x="290" y="570" width="60" height="80" as="geometry" />
        </mxCell>
        <mxCell id="Kr8SvhcPyJ96pY6L8qH0-3" value="DB2" style="shape=cylinder3;whiteSpace=wrap;html=1;boundedLbl=1;backgroundOutline=1;size=15;shadow=0;" parent="DNJ_wXoavEvFbaRkYzXb-1" vertex="1">
          <mxGeometry x="670" y="570" width="60" height="80" as="geometry" />
        </mxCell>
        <mxCell id="Kr8SvhcPyJ96pY6L8qH0-14" style="edgeStyle=orthogonalEdgeStyle;curved=1;rounded=0;orthogonalLoop=1;jettySize=auto;html=1;entryX=0.5;entryY=0;entryDx=0;entryDy=0;entryPerimeter=0;" parent="DNJ_wXoavEvFbaRkYzXb-1" source="Kr8SvhcPyJ96pY6L8qH0-5" target="Kr8SvhcPyJ96pY6L8qH0-0" edge="1">
          <mxGeometry relative="1" as="geometry" />
        </mxCell>
        <mxCell id="Kr8SvhcPyJ96pY6L8qH0-5" value="JDBCMysqlImpl" style="shape=tape;whiteSpace=wrap;html=1;shadow=0;" parent="DNJ_wXoavEvFbaRkYzXb-1" vertex="1">
          <mxGeometry x="80" y="410" width="120" height="100" as="geometry" />
        </mxCell>
        <mxCell id="Kr8SvhcPyJ96pY6L8qH0-15" style="edgeStyle=orthogonalEdgeStyle;curved=1;rounded=0;orthogonalLoop=1;jettySize=auto;html=1;entryX=0.5;entryY=0;entryDx=0;entryDy=0;entryPerimeter=0;" parent="DNJ_wXoavEvFbaRkYzXb-1" source="Kr8SvhcPyJ96pY6L8qH0-6" target="Kr8SvhcPyJ96pY6L8qH0-1" edge="1">
          <mxGeometry relative="1" as="geometry" />
        </mxCell>
        <mxCell id="Kr8SvhcPyJ96pY6L8qH0-6" value="JDBCOraleImpl" style="shape=tape;whiteSpace=wrap;html=1;shadow=0;" parent="DNJ_wXoavEvFbaRkYzXb-1" vertex="1">
          <mxGeometry x="280" y="410" width="120" height="100" as="geometry" />
        </mxCell>
        <mxCell id="Kr8SvhcPyJ96pY6L8qH0-16" style="edgeStyle=orthogonalEdgeStyle;curved=1;rounded=0;orthogonalLoop=1;jettySize=auto;html=1;entryX=0.5;entryY=0;entryDx=0;entryDy=0;entryPerimeter=0;" parent="DNJ_wXoavEvFbaRkYzXb-1" source="Kr8SvhcPyJ96pY6L8qH0-7" target="Kr8SvhcPyJ96pY6L8qH0-2" edge="1">
          <mxGeometry relative="1" as="geometry" />
        </mxCell>
        <mxCell id="Kr8SvhcPyJ96pY6L8qH0-7" value="JDBCSQLServerImpl" style="shape=tape;whiteSpace=wrap;html=1;shadow=0;" parent="DNJ_wXoavEvFbaRkYzXb-1" vertex="1">
          <mxGeometry x="450" y="410" width="120" height="100" as="geometry" />
        </mxCell>
        <mxCell id="Kr8SvhcPyJ96pY6L8qH0-17" style="edgeStyle=orthogonalEdgeStyle;curved=1;rounded=0;orthogonalLoop=1;jettySize=auto;html=1;entryX=0.5;entryY=0;entryDx=0;entryDy=0;entryPerimeter=0;" parent="DNJ_wXoavEvFbaRkYzXb-1" source="Kr8SvhcPyJ96pY6L8qH0-8" target="Kr8SvhcPyJ96pY6L8qH0-3" edge="1">
          <mxGeometry relative="1" as="geometry" />
        </mxCell>
        <mxCell id="Kr8SvhcPyJ96pY6L8qH0-8" value="JDBCDB2Impl" style="shape=tape;whiteSpace=wrap;html=1;shadow=0;" parent="DNJ_wXoavEvFbaRkYzXb-1" vertex="1">
          <mxGeometry x="640" y="410" width="120" height="100" as="geometry" />
        </mxCell>
      </root>
    </mxGraphModel>
  </diagram>
  <diagram id="422dLcF-l06mDVwofb_f" name="jdbc">
    <mxGraphModel dx="1422" dy="762" grid="1" gridSize="10" guides="1" tooltips="1" connect="1" arrows="1" fold="1" page="1" pageScale="1" pageWidth="827" pageHeight="1169" math="0" shadow="0">
      <root>
        <mxCell id="tJGBNMMDz3mi-pHzBfhE-0" />
        <mxCell id="tJGBNMMDz3mi-pHzBfhE-1" parent="tJGBNMMDz3mi-pHzBfhE-0" />
        <mxCell id="ExjE4wsF5KvrfURgv8WI-0" value="Spring MVC&lt;br&gt;Strusts" style="rounded=1;whiteSpace=wrap;html=1;" parent="tJGBNMMDz3mi-pHzBfhE-1" vertex="1">
          <mxGeometry x="250" y="120" width="120" height="60" as="geometry" />
        </mxCell>
        <mxCell id="ExjE4wsF5KvrfURgv8WI-1" value="service" style="rounded=1;whiteSpace=wrap;html=1;" parent="tJGBNMMDz3mi-pHzBfhE-1" vertex="1">
          <mxGeometry x="250" y="285" width="120" height="60" as="geometry" />
        </mxCell>
        <mxCell id="ExjE4wsF5KvrfURgv8WI-2" value="数据访问层" style="rounded=1;whiteSpace=wrap;html=1;" parent="tJGBNMMDz3mi-pHzBfhE-1" vertex="1">
          <mxGeometry x="250" y="445" width="120" height="60" as="geometry" />
        </mxCell>
        <mxCell id="ExjE4wsF5KvrfURgv8WI-3" value="&lt;span style=&quot;color: rgb(0, 0, 0); font-family: helvetica; font-size: 12px; font-style: normal; font-weight: 400; letter-spacing: normal; text-align: center; text-indent: 0px; text-transform: none; word-spacing: 0px; background-color: rgb(248, 249, 250); display: inline; float: none;&quot;&gt;表现层&lt;/span&gt;" style="text;whiteSpace=wrap;html=1;" parent="tJGBNMMDz3mi-pHzBfhE-1" vertex="1">
          <mxGeometry x="70" y="140" width="60" height="30" as="geometry" />
        </mxCell>
        <mxCell id="ExjE4wsF5KvrfURgv8WI-4" value="&lt;span style=&quot;color: rgb(0, 0, 0); font-family: helvetica; font-size: 12px; font-style: normal; font-weight: 400; letter-spacing: normal; text-align: center; text-indent: 0px; text-transform: none; word-spacing: 0px; background-color: rgb(248, 249, 250); display: inline; float: none;&quot;&gt;业务逻辑层&lt;/span&gt;" style="text;whiteSpace=wrap;html=1;" parent="tJGBNMMDz3mi-pHzBfhE-1" vertex="1">
          <mxGeometry x="70" y="300" width="90" height="30" as="geometry" />
        </mxCell>
        <mxCell id="ExjE4wsF5KvrfURgv8WI-5" value="&lt;span style=&quot;color: rgb(0, 0, 0); font-family: helvetica; font-size: 12px; font-style: normal; font-weight: 400; letter-spacing: normal; text-align: center; text-indent: 0px; text-transform: none; word-spacing: 0px; background-color: rgb(248, 249, 250); display: inline; float: none;&quot;&gt;数据访问层&lt;/span&gt;" style="text;whiteSpace=wrap;html=1;" parent="tJGBNMMDz3mi-pHzBfhE-1" vertex="1">
          <mxGeometry x="70" y="460" width="90" height="30" as="geometry" />
        </mxCell>
        <mxCell id="ExjE4wsF5KvrfURgv8WI-6" value="" style="endArrow=none;dashed=1;html=1;" parent="tJGBNMMDz3mi-pHzBfhE-1" edge="1">
          <mxGeometry width="50" height="50" relative="1" as="geometry">
            <mxPoint x="110" y="240" as="sourcePoint" />
            <mxPoint x="510" y="240" as="targetPoint" />
            <Array as="points">
              <mxPoint x="400" y="240" />
            </Array>
          </mxGeometry>
        </mxCell>
        <mxCell id="ExjE4wsF5KvrfURgv8WI-7" value="&lt;font style=&quot;font-size: 24px&quot;&gt;controller 接口&lt;/font&gt;" style="edgeLabel;html=1;align=center;verticalAlign=middle;resizable=0;points=[];" parent="ExjE4wsF5KvrfURgv8WI-6" vertex="1" connectable="0">
          <mxGeometry x="-0.145" y="2" relative="1" as="geometry">
            <mxPoint x="19" as="offset" />
          </mxGeometry>
        </mxCell>
        <mxCell id="ExjE4wsF5KvrfURgv8WI-8" value="" style="endArrow=none;dashed=1;html=1;" parent="tJGBNMMDz3mi-pHzBfhE-1" edge="1">
          <mxGeometry width="50" height="50" relative="1" as="geometry">
            <mxPoint x="130" y="400" as="sourcePoint" />
            <mxPoint x="530" y="400" as="targetPoint" />
            <Array as="points">
              <mxPoint x="420" y="400" />
            </Array>
          </mxGeometry>
        </mxCell>
        <mxCell id="ExjE4wsF5KvrfURgv8WI-9" value="&lt;font style=&quot;font-size: 24px&quot;&gt;Dao&amp;nbsp; 接口&lt;/font&gt;" style="edgeLabel;html=1;align=center;verticalAlign=middle;resizable=0;points=[];" parent="ExjE4wsF5KvrfURgv8WI-8" vertex="1" connectable="0">
          <mxGeometry x="-0.145" y="2" relative="1" as="geometry">
            <mxPoint x="19" as="offset" />
          </mxGeometry>
        </mxCell>
        <mxCell id="ExjE4wsF5KvrfURgv8WI-10" value="MySql" style="shape=cylinder3;whiteSpace=wrap;html=1;boundedLbl=1;backgroundOutline=1;size=15;" parent="tJGBNMMDz3mi-pHzBfhE-1" vertex="1">
          <mxGeometry x="140" y="780" width="60" height="80" as="geometry" />
        </mxCell>
        <mxCell id="ExjE4wsF5KvrfURgv8WI-11" value="DM" style="shape=cylinder3;whiteSpace=wrap;html=1;boundedLbl=1;backgroundOutline=1;size=15;" parent="tJGBNMMDz3mi-pHzBfhE-1" vertex="1">
          <mxGeometry x="270" y="780" width="60" height="80" as="geometry" />
        </mxCell>
        <mxCell id="ExjE4wsF5KvrfURgv8WI-12" value="Oracle" style="shape=cylinder3;whiteSpace=wrap;html=1;boundedLbl=1;backgroundOutline=1;size=15;" parent="tJGBNMMDz3mi-pHzBfhE-1" vertex="1">
          <mxGeometry x="490" y="780" width="60" height="80" as="geometry" />
        </mxCell>
        <mxCell id="ExjE4wsF5KvrfURgv8WI-13" value="&lt;pre style=&quot;background-color: #2b2b2b ; color: #a9b7c6 ; font-family: &amp;quot;consolas&amp;quot; ; font-size: 9.0pt&quot;&gt;dm.jdbc.driver.dm7&lt;/pre&gt;" style="text;whiteSpace=wrap;html=1;" parent="tJGBNMMDz3mi-pHzBfhE-1" vertex="1">
          <mxGeometry x="260" y="720" width="140" height="50" as="geometry" />
        </mxCell>
        <mxCell id="ExjE4wsF5KvrfURgv8WI-14" value="&lt;pre style=&quot;color: rgb(0 , 0 , 0) ; font-size: 12px ; font-style: normal ; font-weight: 400 ; letter-spacing: normal ; text-align: center ; text-indent: 0px ; text-transform: none ; word-spacing: 0px ; background-color: rgb(43 , 43 , 43)&quot;&gt;&lt;font color=&quot;#a9b7c6&quot; face=&quot;consolas&quot;&gt;mysql-connector-java&lt;/font&gt;&lt;/pre&gt;" style="text;whiteSpace=wrap;html=1;" parent="tJGBNMMDz3mi-pHzBfhE-1" vertex="1">
          <mxGeometry x="100" y="720" width="160" height="50" as="geometry" />
        </mxCell>
        <mxCell id="ExjE4wsF5KvrfURgv8WI-15" value="&lt;pre style=&quot;background-color: #2b2b2b ; color: #a9b7c6 ; font-family: &amp;quot;consolas&amp;quot; ; font-size: 9.0pt&quot;&gt;oracle.jdbc.driver.OracleDriver&lt;/pre&gt;" style="text;whiteSpace=wrap;html=1;" parent="tJGBNMMDz3mi-pHzBfhE-1" vertex="1">
          <mxGeometry x="405" y="720" width="230" height="50" as="geometry" />
        </mxCell>
        <mxCell id="ExjE4wsF5KvrfURgv8WI-16" value="JDBC&amp;nbsp;" style="rounded=1;whiteSpace=wrap;html=1;" parent="tJGBNMMDz3mi-pHzBfhE-1" vertex="1">
          <mxGeometry x="100" y="640" width="520" height="40" as="geometry" />
        </mxCell>
        <mxCell id="ExjE4wsF5KvrfURgv8WI-17" value="hibernate" style="ellipse;whiteSpace=wrap;html=1;" parent="tJGBNMMDz3mi-pHzBfhE-1" vertex="1">
          <mxGeometry x="110" y="530" width="120" height="80" as="geometry" />
        </mxCell>
        <mxCell id="ExjE4wsF5KvrfURgv8WI-18" value="Mybatis" style="ellipse;whiteSpace=wrap;html=1;" parent="tJGBNMMDz3mi-pHzBfhE-1" vertex="1">
          <mxGeometry x="270" y="530" width="120" height="80" as="geometry" />
        </mxCell>
        <mxCell id="ExjE4wsF5KvrfURgv8WI-19" value="JDBCTemplate" style="ellipse;whiteSpace=wrap;html=1;" parent="tJGBNMMDz3mi-pHzBfhE-1" vertex="1">
          <mxGeometry x="410" y="530" width="120" height="80" as="geometry" />
        </mxCell>
      </root>
    </mxGraphModel>
  </diagram>
  <diagram id="Gn3CyrgP1y2DN8lUzLM5" name="JPA">
    <mxGraphModel dx="1422" dy="762" grid="1" gridSize="10" guides="1" tooltips="1" connect="1" arrows="1" fold="1" page="1" pageScale="1" pageWidth="827" pageHeight="1169" math="0" shadow="0">
      <root>
        <mxCell id="EBmrGP6m8wThTGVB1uCB-0" />
        <mxCell id="EBmrGP6m8wThTGVB1uCB-1" parent="EBmrGP6m8wThTGVB1uCB-0" />
        <mxCell id="S_gm7kpS2hk02sHJzMwB-0" value="&lt;pre style=&quot;background-color: #2b2b2b ; color: #a9b7c6 ; font-family: &amp;#34;consolas&amp;#34; ; font-size: 9.0pt&quot;&gt;JpaRepository&lt;/pre&gt;" style="rounded=0;whiteSpace=wrap;html=1;" vertex="1" parent="EBmrGP6m8wThTGVB1uCB-1">
          <mxGeometry x="354" y="250" width="120" height="60" as="geometry" />
        </mxCell>
        <mxCell id="S_gm7kpS2hk02sHJzMwB-1" value="&lt;pre style=&quot;background-color: #2b2b2b ; color: #a9b7c6 ; font-family: &amp;#34;consolas&amp;#34; ; font-size: 9.0pt&quot;&gt;PagingAndSortingRepository&lt;/pre&gt;" style="rounded=0;whiteSpace=wrap;html=1;" vertex="1" parent="EBmrGP6m8wThTGVB1uCB-1">
          <mxGeometry x="250" y="400" width="120" height="60" as="geometry" />
        </mxCell>
        <mxCell id="S_gm7kpS2hk02sHJzMwB-2" value="&lt;pre style=&quot;background-color: #2b2b2b ; color: #a9b7c6 ; font-family: &amp;#34;consolas&amp;#34; ; font-size: 9.0pt&quot;&gt;QueryByExampleExecutor&lt;/pre&gt;" style="rounded=0;whiteSpace=wrap;html=1;" vertex="1" parent="EBmrGP6m8wThTGVB1uCB-1">
          <mxGeometry x="520" y="420" width="120" height="60" as="geometry" />
        </mxCell>
        <mxCell id="S_gm7kpS2hk02sHJzMwB-3" value="&lt;pre style=&quot;background-color: #2b2b2b ; color: #a9b7c6 ; font-family: &amp;#34;consolas&amp;#34; ; font-size: 9.0pt&quot;&gt;CrudRepository&lt;/pre&gt;" style="rounded=0;whiteSpace=wrap;html=1;" vertex="1" parent="EBmrGP6m8wThTGVB1uCB-1">
          <mxGeometry x="280" y="570" width="120" height="60" as="geometry" />
        </mxCell>
        <mxCell id="S_gm7kpS2hk02sHJzMwB-4" value="" style="shape=image;verticalLabelPosition=bottom;labelBackgroundColor=#ffffff;verticalAlign=top;aspect=fixed;imageAspect=0;image=data:image/png,iVBORw0KGgoAAAANSUhEUgAAAmAAAAGnCAYAAAAQbutBAAAgAElEQVR4Ae3dzY7c1pnw8bmAuZIoieNxEE8cf1U78OSFkkhRInmsSHJ2gwDpEeBZjIwIb6ARZuKJFgnehrPovRfaaac70G3xxWHVIQ/ZJLuqm2Tx47coVBeLn8/5n+f5n0Oq9A83btzIvMQAAxjAAAYwgAEMjMfAPwj2eMEWa7HGAAYwgAEMYCAwQMDMAJoBxQAGMIABDGBgZAYI2MgBN/Ix8sEABjCAAQxggIARMKMeDGAAAxjAAAZGZoCAjRxwox6jHgxgAAMYwAAGCBgBM+rBAAYwgAEMYGBkBgjYyAE36jHqwQAGMIABDGCAgBEwox4MYAADGMAABkZmgICNHHCjHqMeDGAAAxjAAAYIGAEz6sEABjCAAQxgYGQGCNjIATfqMerBAAYwgAEMYICAETCjHgxgAAMYwAAGRmaAgI0ccKMeox4MYAADGMAABggYATPqwQAGMIABDGBgZAYI2MgBN+ox6sEABjCAAQxggIARMKMeDGAAAxjAAAZGZoCAjRxwox6jHgxgAAMYwAAGCBgBM+rBAAYwgAEMYGBkBgjYyAE36jHqwQAGMIABDGCAgBEwox4MYAADGMAABkZmgICNHHCjHqMeDGAAAxjAAAYIGAEz6sEABjCAAQxgYGQGCNjIATfqMerBAAYwgAEMYICAETCjHgxgAAMYwAAGRmaAgI0ccKMeox4MYAADGMAABggYATPqwQAGMIABDGBgZAYI2MgBN+ox6sEABjCAAQxggIARMKMeDGAAAxjAAAZGZoCAjRxwox6jHgxgAAMYwAAGCBgBM+rBAAYwgAEMYGBkBgjYyAE36jHqwQAGMIABDGCAgBEwox4MYAADGMAABkZmgICNHHCjHqMeDGAAAxjAAAYIGAEz6sEABjCAAQxgYGQGCNjIATfqMerBAAYwgAEMYICAETCjHgxgAAMYwAAGRmaAgI0ccKMeox4MYAADGMAABggYATPqwQAGMIABDGBgZAYI2MgBN+ox6sEABjCAAQxggIAlAvbkyZPM67gxkJQkJQxgAAMYWAMDBKwmYLdubjKv48QgyO8aOp1rVFwwgAEMYICAEbDJCCcBk5AUJQxgAANrYYCAETACljCwlo7vOhU5DGAAA8dlgIAlxTfMwLj9eJzbjyHuZsCOmwwkY/HHAAYwMB4DBIyATUY6Cdh4HV+SFWsMYAADx2WAgBEwApYwICEdNyGJv/hjAANrYYCAJcW36xbk7dub7O4fNtnnf9pk978+yV/h77AsfOfW5fVjYAZM4l1L4nWdWMcABgjYHgL26y822f0/n2S/fdH8Ct+FdUjY9WJAwCQkRQkDGMDAWhggYJcIWBCrNvGqLx9Hwj7Lnn77Jnv5OnmdnV5B/k6zF6/Ps9PRfvfs8uMRMIl3LYnXdWIdAxggYB0CFm4tpjNfd776INt8/k/Z+7e+n3145wfZh3feyn7x+MeFoIV1m25H3v39SfbgryfZg7+dZPdOT64gS00zS5cLTfeM3HW3bzqnrmWXH4+ASUiKEgYwgIG1MEDAOgQsPN8VZ7luf/V+9t7N72W/fvpBsexf/+fj7MO7b2c///dSwsI2dfEJ4nXn3ib71W822YOzIQVsKzlPn70qZsjOn31Wns/D59l5OnNWmQEL25azai8e767j8Xn28vWr7OnD7edH+b7TmbOW7cLMWufxLsaJgEm8a0m8rhPrGMAAAesQsPCQfRSwMNt1+8n72S//473sg1+9lX107+3sg9tvZff+6+PsvZvfL9YL21wQsG8+KZY9/GZoAXuTvYy3JIMAffs8e5TfZgyiVIrUrZtbWdveggy3NetSlXwOEpbvM90mXGfXdl3HuxijEDMCJiEpShjAAAbWwgAB6xCw9Pbju5/eyD7/y0n2z//y3eze84+zO398PxexIGg/+ul3CwEL29QF7OHftwIW5KvpVV9/v891GQpSU1+WfC4kKspP8t2FmaowE5bK2ibbzny9yYqZscYZrmS7ruO1PHdGwCTetSRe14l1DGCAgB0gYPf/cpK9+9PvZp9/vcl++eV7+TNgYQbsxz/7XqeARaFqkq+rz4glAlUITX1Z8rlLiCozZVHQqu+Pnp1nL85eZRduaRYzbNX1b3Udrzjf6jYETEJSlDCAAQyshQEC1iFg6S3IcLvxzh8/yH72b+9mH9z5QfbRvR9kH919O/vJz7+f/eLL9woBa7oFOQkBy2e54m3F+C8p4+cgarXZrVSSCpnablfOgnVs13m8qnjF+BAwiXctidd1Yh0DGCBgHQKWPoQfJCtI2Gf//XEhW2FG7PP/LZ8TC7cjmx7Cj4LRzwxYlKfygfnima+uW5A3y9uI4ScsXjxOZseCbNVvQ8aZrSBfDQ/rFzNhbdtddrxU8HZ/EzAJSVHCAAYwsBYGCFiHgNV/hiLednz/1lvFT1Hce/5RKWQtP0PRr4A1zx7FY8z5nYBJvGtJvK4T6xjAAAHrELAgM9P7IVYCJnFJXBjAAAYwMHcGCNglAhYlLP0XkfGnKeJ7+G6cX8FfrnyFOJsBk1DnnlCdP4YxgIF9GSBgewhYkINwOzI83xUesvefcQ8jggRM4to3cVkPKxjAwNwZIGB7CliQMK9hY0DAJNS5J1Tnj2EMYGBfBggYAZuMWBIwiWvfxGU9rGAAA3NngIARMAKWMDD3Du38FSUMYAAD82CAgCXFN8zAuM047G3GrviaAZtH0pDctRMGMICB6zNAwAjYZKSTgF2/Q0uKYogBDGBgHgwQMAJGwBIGJK55JC7tpJ0wgIG5M0DAkuIbZmDu37/vdaQYmAGTUOeeUJ0/hjGAgX0ZIGA1AQsS4HW8GOwLrvUkOQxgAAMYmDMDBCwRsDk3pHOXiDCAAQxgAAPzYYCAEbBMh51Ph9VW2goDGMDAMhggYASMgGEAAxjAAAYwMDIDBGzkgA85cvnqq3/UgRbUnkOyYt/LGEFrR+2IgfkyQMAUbNKGAQxgAAMYwMDIDBCwkQNutDLf0Yq203YYwAAGMNAXAwSMgBn1YAADGMAABjAwMgMEbOSA92XOTfvxDJiRWRMXluECAxjAwPQYIGALEjAdbHodTJtoEwxgAAMYaGKAgBEw084YwAAGMIABDIzMAAEbOeBNFmyZ0REGMIABDGBgXQwQsAUJmGfA1tV5JWvtjQEMYGC+DBCwBQmYjjjfjqjttB0GMICBdTFAwAiY+/4YwAAGMIABDIzMAAEbOeBGOOsa4Whv7Y0BDGAAA00MELAFCZhnwHTypk5uGS4wgAEMTI8BArYgAdPBptfBtIk2wQAGMICBJgYIGAFz3x8DGMAABjCAgZEZIGAjB7zJgi0zOsIABjCAAQysiwECtiAB8wzYujqvZK29MYABDMyXAQK2IAHTEefbEbWdtsMABjCwLgYIGAFz3x8DGMAABjCAgZEZIGAjB9wIZ10jHO2tvTGAAQxgoIkBArYgAfMMmE7e1MktwwUGMICB6TFAwBYkYDrY9DqYNtEmGMAABjDQxAABI2Du+2MAAxjAAAYwMDIDBGzkgDdZsGVGRxjAAAYwgIF1MUDAFiRgngFbV+eVrLU3BjCAgfkyQMAWJGA64nw7orbTdhjAAAbWxQABI2Du+2MAAxjAAAYwMDIDBGzkgBvhrGuEo721NwYwgAEMNDFAwBYkYJ4B08mbOrlluMAABjAwPQYI2IIETAebXgfTJtoEAxjAAAaaGCBgBMx9fwxgAAMYwAAGRmaAgI0c8CYLtszoCAMYwAAGMLAuBgjYggTMM2Dr6ryStfbGAAYwMF8GCNiCBExHnG9H1HbaDgMYwMC6GCBgBMx9fwxgAAMYwAAGRmaAgI0ccCOcdY1wtLf2xgAGMICBJgYI2IIEzDNgOnlTJ7cMFxjAAAamxwABW5CA6WDT62DaRJtgAAMYwEATAwSMgLnvjwEMYAADGMDAyAwQsJED3mTBlhkdYQADGMAABtbFAAFbkIB5BmxdnVey1t4YwAAG5ssAAVuQgOmI8+2I2k7bYQADGFgXAwSMgLnvjwEMYAADGMDAyAwQsJEDboSzrhGO9tbeGMAABjDQxAABW5CAeQZMJ2/q5JbhAgMYwMD0GCBgCxIwHWx6HUybaBMMYAADGGhigIARMPf9MYABDGAAAxgYmYHFC9idO3eyJ0+eeC0sBqFdm0YUV12GE33kmHmib56v2g9sZ6YGA+MxsAoBC8nt1s2N10JiENqz74IV94kT/WRsBiJ7Ct94hU+sxXoKDBCwhUjJ2EXjmMcbomDFfR7zuhx7nfIX2ZtCQXAOxAQD4zFAwAjY7GYGhyhYcZ8kaJ0SdMx2j+wpfOMVPrEW6ykwQMAIGAG7cSO/pRkK4TELsWOvU/4IGBmYggw4h/E5JGAEbHbSMUTBivskQeuUoGO2e2RPARy/AIq5mB+TAQJGwAiYGbDZMXBMYer72ASMBBxTAhz7ePytXsBu395kd/+wyT7/0ya7//VJ/gp/h2Xhu76Trf1dP6ZDFKy4z7b2wcn1260ttmtfHtlTCI9XCMVe7I/BwKoF7NdfbLL7fz7Jfvui+RW+C+ustkA8fJ6dv36TvXg8rRgMUbDiPpvaGicDtf9E+WpiYMhlkb1jFADHJB4YOB4DqxWwUFTbxKu+fBwJ+yx7+u2b7OXr+HqVPX04UOHb97Zra4E8zV68Ps9O991Pz+sNUbDiPuuFdnKcXGiTLTeXSzK+6m27/RxYjn1u+355LPvtl5E9hfB4hVDsxf4YDKxSwMLtpK6Zr7qAhXWbbkfe/f1J9uCvJ9mDv51k905PrjlTFgpkKV2Pnr3KXn77PHvUs7w0F6FDC8o6BKzOyZ2vPsg2n/9T9v6t72cf3vlB9uGdt7JfPP5xIfKjcBIE7NtX2XnBxiEChq+L/NdYzgV33MEFAVP8j1H8HfP43K1SwMLzXXXJ+uHH38nSV/37sE09eQfxunNvk/3qN5vswVm/AnbrQiGojtTLUfq2gDwNwrYbyZ8/+6w8192MSfyu3G6TbY9Rjv7L7dLZkmoxOj0r14/7fHl2utfxTs9eZU8fb29r5ttGibhwrd1SMUTBivtM2zjl5PZX72fv3fxe9uunHxTs/Ov/fJx9ePft7Of/XkrY4JyEWH37PHt6Fm8N12LV2t5hvVLA8BXjVxOwx+e1gU9bv9tk9b5Q9q1L+mRtUBXZUxCPXxC1gTYYk4FVClh4yL4uWOHzJ4/eyV9N34Vt0uIc/n7wzSfFsoff9Ctg+QxYITaheKYilBaNXYEo1g2fY6FN/47CFb+rFeRaUdhea3qc9Pq7lsf914+3K1hRum5uP2+LVoNEFNeTHnf79xAFK+4zbeOUkzDbdfvJ+9kv/+O97INfvZV9dO/t7IPbb2X3/uvj7L2b3y94GpyTnYA9Cu95jNLY7d/e+IqDhhCzdFCR9rOuflfjMhffuO1un5Hh2GaNfWxT/AbdmInfsYgGBo7PwCoFrO32Y5eAhW3S4hz+fvj3rYAF+Wp61dfv/rwtpPvMKm3XiaJTl6GkIIfRfCwCu+QfRu1xpJ4X4ddvsnLmq1ZUbtb3Hb9vWX7J8dJjX4hFsm0+U9bx/FuUpT4TSNxnel4pJ+9+eiP7/C8n2T//y3eze88/zu788f1cxIKs/+in3y0EbHBOkmK+jdO+7Y2v2BeqfNVYTkUq/zuVs/B37Heb7FZgtlHeavts7UfDDSj67Bv2dfxCrQ2W2QYELPkXkIcKWCzWTfJ1+IxYKJC75L5L/IUYJUU3HrN8ryf7ZD+J1MT1myQoilgsUHHdW62Fo37MnZhdcrymY1881mn2IpklK7+P8jfMjME+Anb/LyfZuz/9bvb515vsl1++lz8DFmbAfvyz73UKWLyGXjhJWcjj/Tz/xxu5VHfGP+ECX8mzlXWWa3FqZTFsl8hYpa/U91n/XLIc2IjsKbLLLLLaVbu2MbBKAUtvLaW3G7sErOnWUq+F9WaS+G9uslyKiuQfEng5cxWPu32vJfdQhOO/UMwLbVIk6p/TWyJpYS+W1/ZdWZ7sNy6v77/2uVvAdrckz86LGbrqdZZFa4iCFfeZHjPlJNxuvPPHD7Kf/du72Qd3fpB9dO8H2Ud3385+8vPvZ7/48r1CwAbnpNJOW2bOv92xUYv39jmv2E74yvm7wFeN8TyG1VuJccY4ZWM7OImxjc+DpdvFvwO3tWPE/rJ7j+y1JWnLFXAMLJOBVQpY+nB1FLD0Afzwd1we35sero4JuZeZjZqAbZN2Il15YUhuh9TkrLwVkib++m2SsmDE/ZfbdX33pvZg8k4Q4+2X9DZnLoDxPNN9ps98lTIVY5i/V4pfyzoDzRjEIpieT8pJkKwgYZ/998cFG2FG7PP/rT5PODgnIUZF25ftW0hCa/yrAhbbv9hutXwFOYq81m4xBkFqjUuUru2258+eJz/NUheu+ucq25E9RXaZRVa7atc2BlYpYPWfF4iS1fYenutp+hmKWKz7EbBqUo77vvy9O7lfvv1Vj9v/dmHWr7jtWpslSK9jiIIV95kep85JvO34/q23ip+iuPf8o1LIJs3JVdtrfXylDIzxd2SvLUlbroBjYJkMrFLAQlKd3A9sdghHdxGYf4FsfwatWRqGKFhxn/VYL4eT5ljWr/fi5/XxdTEGV43dfttF9hTZZRZZ7apd2xhYrYCFJBuKa/ov3eozYOG7sM7YCdnxumM+RMGK+2yKPU6626MpZpbtH7PIXluStlwBx8AyGVi1gIUiEW4zhed2wsPT/jPu/YvGMQvsEAUr7rPtunAyDzba2m/KyyN7iuwyi6x21a5tDKxewKacmJ1bc9EfomDFfYp5c8zFZbi4RPbakrTlCjgGlskAAbvys1fDJWTFrju2QxSsuE+x7469+PQfn8ieIrvMIqtdtWsbAwSMgM3uGbchClbcJ8HoXzDEtDumkb22JG25Ao6BZTJAwAgYAbtxo/g1crLQLQvi0398CNgyiytp0q6XMUDACBgBI2CzY2BJIkjAFOrLCrXvl8kIASNgsyu+QxSsuM8lFXbX0v9s1RAxjewpssssstpVu7YxsBoBu3//fua1jBgMUbDiPjGyDEbm1I6RvbYkbbkCjoFlMrAKAXvy5EnmtawYhKLVZ1IK+8PIshiZU3v2zXOffcO+lln8tevx23XxArYmyD65/36vUrKm2LnW4ycjbaANMICBNTFAwG4sA/h3T97Jfnd2OwvvawLYtU6D36+++sfFcbfEa9JfptFftIN2CAwQsIUI2J3//DQXsPCuc+vcGMAABjCAgWkzQMAWIGBx9ivMgJkFm3aHkxC1DwYwgAEMBAYI2AIELM5+RQEzCzbtzu3W1rTbR3HUPhjAwBgMELCZC1h99itKmGfBJJAxEkg8xhKlconXFNvLu/yAgeMzQMBmLmD12a8oYGbBjt+5JDhtgAEMYAADbQwQsBkLWNvsV5Qws2A6flvHtxwbGMAABo7LAAGbsYC1zX5FATMLdtzO1Zbc3NqaZru0tZfl2gsDGBiCAQI2UwG7bPYrSphZMIljiMRR3+cSpXKJ11RvN5/lBwwcjwECNlMBu2z2KwqYWbDjdS6JTewxgAEMYKCNAQI2QwHbd/YrSphZMAmgLQFYjg0MYAADx2GAgM1QwNo6SxCutu8sP04Ha4q7W1vTaYum9rFM+2AAA2MwQMAIGGlbEANjJI2mYyxRKpd4TU1tZxnZwMBxGCBgCyq+ZsCO04kkL3HHAAYwgIFDGSBgBMwM2IIYODQBWF/RwAAGMHAcBgjYgoqvGbDjdKJDk5dbW/Nop0Pb1fraFQMYOIQBAkbAzIAtiIFDOn+f6y5RKpd4TX22uX2RDQxcjwECtqDiawbsep1BMhE/DGAAAxgYiwECRsDMgC2IgbESh+MoUhjAAAauxwABW1DxNQN2vc4wVjJxa2se7TQWD46DBwyskwECRsDMgC2IgWMl8iVK5RKv6Vh8OO46BUO7d7c7AVtQ8TUD1g27ZCA+GMAABjAwFQYIGAEzA7YgBqaSWJyHIocBDGCgmwECtqDiawasG/apJAO3tubRTlPhxXngBQPLZICAEbBVzoDVJWjsz3NPqJfFa+7XF85/Dde4hHZyDcuUkzW0KwEjYKsUsDV07r6vsS4kfe/f/hRSDGBgTQwQMAK2KgEjERL8mhK8a8U7BqbLAAEjYKsSMMlouslI22gbDGBgTQwQMAJGwBbEwJqS19jXavaUHIzNnOMtmzkCtqDi619BLruzHjsZExB8HZtBx8fgkhggYARsVTNgJEICX1ICdy14xsB8GSBgBGxVAiZZzTdZaTtthwEMLIkBAkbACNiCGFhScpratZg9VfynxqTzmTeTBGxBxdczYPPujFNPpgQEX1Nn1PlhdE4MEDACtqoZMBIhQc8pQTtXvGJguQwQMAK2KgGTzJabzLSttsUABubEAAEjYARsQQzMKfnM7VzNniruc2PW+U6bWQK2oOLrGbBpd7a5J0MCgq+5M+z8MTwlBggYAVvVDBiJkICnlICdCx4xsF4GCBgBW5WASXbrTXbaXttjAANTYoCAETACtiAGppRclnYuZk8V76Ux7XqOyzQBW1Dx9QzYcTvT0pMZAcHX0hl3fRgfkwECRsBWNQNGIiTYMROsY+ENAxhoY4CAEbBVCVhbR7BcksQABjCAgTEZIGAEjIAtiIExk8fajmX2VHFeG/Oud1jmCdiCiq9nwIbtLGtPRgQEX2vvA65fH+iTAQJGwFY1A0YiJNA+E6h94QkDGLgqAwSMgK1KwK7aUWwnyWIAAxjAQJ8MELAFCdinX3xIphbUnn12dPu6fuEwe3r9GOJQDDFQMkDArlGwnzx5knmJwXUZmEtCIiBl4pxLmzlPbYaB6TJAwK4pYLdubjIvMbgqA0HeJMjpJkhto20wgIGhGCBgBIxAHlGiCZjkPlRyt19sYWDaDBAwAkbACJhZuD3ygFuw0y5mZEP7zI0BArZH4m1r1DB7cdVbT7Zz2zIwMKcZMAKiwLXlQsuxgYHDGSBgBIxEmgEzA3aNPKDwHF54xEzMMHAjI2DXSLxmwMxiXXcmc04zYBKmookBDGCgPwYI2EACdvv2Jrv7h032+Z822f2vT/JX+DssC99dt3DbfhkxJGD9JbOhC4NbsPNpq6FZsH8s9MEAARtAwH79xSa7/+eT7Lcvml/hu7AOiRopBg+fZ+ev32QvHo90vANuac5JwAiIotNH0bEPHGFgywAB61nAgli1iVd9+ZgSdnr2Jnv5unz1KyOn2YvX59lpLh6fZU+/LY/z8vWr7OnDI4tPq4Cl532cc5yTgEmaCicGMICB/hggYD0KWLi12DXzVRewsG7T7ci7vz/JHvz1JHvwt5Ps3unJtWfKcvk6O732ftpn7FKRCQJWStejZ6+yl98+zx4dMCvUfpy+JSk97773vd/+CFh/yUxhEEsMYGBODBCwHgUsPN9Vl6wffvydLH3Vvw/b1IUjiNede5vsV7/ZZA/Orilg+exPnJ26eKzTs1fZ08fbW3T5DFkhS3U5qX3ezSqVs2rxGFUBu3Xh+GE/5QxZORO33f/TIGy778+ffVbGpna8crtNtj1Guc9yu3Q2Lp7fNgb1GcH8mKmkdhyvNWYXrnV7/Mq51kSUgM2nYLgFO5+2mlMRdq7r5YqA9Shg4SH7umCFz588eid/NX0XtrkgYN98Uix7+M01BezxeecMVC4ihXRtsvB5Kww14bqZfg5/l7NctyrfVQUsnwErxCZ8l4pQfZ9vspfFuukx0r+jcMXjV49Xj+X2c3qcNN5dy+P+68fbxiid1StjVhOuIGTF9aTHLf+ek4ARkPUWCpKg7THQPwMErEcBa7v92CVgYZu6NDz8+1bAgnw1verrd37eQ8CaZ2jqcpJ8DvusiEXy3c2thMRZrMp6tVml7TpRdNJ9BEFJZObC8VJR3GS55L1+k5UzX6XgXEnALjleKVz142yyW8m2+UzZJc+/zUnAJOD+E7CYiikG1ssAAZuggEWhapKvg2fELtwWq0pDu0zUhSj5nEjGRcFJZqR2wlWIUficzLbF67y4jyhgOzm7cLyqgMX9RBGrSF9+yy8598otwJbllxyvPWbhvOM+T7MXrddatgEBW2/yVXi1PQbWzQAB61HA+roFGYWiFwGLM1KVGatSANplIohEnJ3a3XaL/9KxInVxxiveWkwE7OZudqoQkbDPeIuzPIdGAQsSVDleeS7bZ76Sz6lUNUpelKKmYzbsJ7++ZHntc3vMtvvPvz873+tnLwjYfBKwW7DzaStio63mwAAB61HA+noIv18BC1IQJal8UD3eduySiWJGKb+99zz5qYnytl+4jfjicSo4VQHbzggl0pXLTHke5bNUWzkrbl1G+YpylQtZ3C6Ro3zGKS4P713fvbnwPFx6jZWZs9bjNc++xTbL3/NrjEJal77q5zkJGAFR1OZQ1JwjTufCAAHrUcD6+hmKWMz7mQGrFvy47+m9pxI3l3NuPs8gdcVt1yiQLe9zErC5JDXnqQBjAANzYICA9ShgQWqm+kOs0xOuurzMX8CK2bSW271NbUDAFIo5FArniFMM9M8AAetZwKKEtf2LyPBTFOG7MX8Fv6nwW1YXwON8JmD9J7WhCoVbsPNpq6EYsF8M9MkAARtAwILchNuR4Zmw8GC+/4z7OHIzB8mck4AREMWnz+JjX3haOwMEbCABm0Pxd47HF8M5Cdjak6XrJwwYwECfDBAwAnbhh2CJ2XhiRsAk9D4Tun3hCQPzYYCAETAC1vIvFMcQUQI2n2TpFux82oqEaKs5MEDACBgBI2DZPsmKgChq+3BiHZxgYD8GCBgBI2AEbC8Bk1T3S6riJE4YwMA+DBAwAkbACBgBu0Ye2CfRWkdBxgAG6gwQsGsk3vD8zv37973E4MoMeAZsPknZLdj5tFW90Pms7abIAAG7poCFAuolBtdhYIqJoemcCIgi1sSFZbjAwNUYIGDXEDDQdZuFhNwAAB8OSURBVEP37sk7WXiJU3ecxEd8MIABDKyPAQJGwAYTpDv/+WkWXhLL+hKLNtfmGMAABroZIGAEbBBBCjNfvzu7nb/MgnV3QklqHvFxC3Ye7aQ/aae5MEDACNggAhZmvqKAmQVbRkIkIMtox7kUJ+eJt6UzQMAIWO8Cls5+RQkzCyaZLj2Zuj6MYwADhzBAwAhY7wKWzn5FATMLJjEdkpisixcMYGDpDBAwAtargDXNfkUJMwsmoc45oboFi9858+vcp8cvASNgvQpY0+xXFDCzYNNLAIckZQIy7/Y7pK2tq60xMDwDBIyA9SZgXbNfUcLMgg3fqSVOMcYABjAwfQYIGAHrTcC6Zr+igJkFm35SkLi1EQYwgIHhGSBgBKwXAdtn9itKmFmw4Tu25Nl/jN2C7T+mOBXTNTNAwAhYLwK2z+xXFDCzYPNMugRknu225gLn2jE7ZQYIGAHrRcDaIA/S1fad5ZIjBjCAAQyslQECRsAGFSQCJrmuNbm6buxjAANdDBAwAkbAMDAoA10JaE7fuQWrmM6JV+c6fV4JmOI7aPE1Azb9JLBvoiYgy2nLfdvcetocA8MxQMAIGAHDwKAMSODDJXCxFVsMzJcBAqb4Dlp8zYDNNzlI7NoOAxjAwHAMEDACRsAwMCgDS0ngbsEOV4iWwojrwMghDBAwxXfQ4msGbDkJiYAspy0PKRLW1e4YGIYBAkbACBgGBmVA8h4meYuruGJg3gwQMMV30OJrBmzeCUKC134YwAAGhmGAgBEwAoaBQRlYSvJ2C3aYIrQUPlwHPg5lgIApvoMWXzNgy0lKBGQ5bXloobC+tsdA/wwQMAJGwDAwKAMSd/+JW0zFFAPzZ4CAKb69Ft8w41V/SRTzThRmvubdfvqf9sPANBkgYASsdwHT2afZ2bXL9dqFiF4vfvgTPwxUGSBgBIyAYaCRAcJRTZaKh3hgAAN9MkDAFN/G4ntVyDx0L0FdlR3bYQcDGFgTAwSMgBEwDPTKwJoSqGslDBjAwFUZIGCKb6/F1wyYZHTVZDT17dySxfbUGXV+82KUgBEwAoaBRgYIx7ySueKrvTAwLwYImOLbWHyv2pHNgM0rAVy1nW2nnTGAAQxcjwECRsAIGAZ6ZUBSvl5SFj/xw8A6GCBgim+vxdcM2DoSxxoLhFuy2F4j9655OO4JGAEjYBhoZIBwDJd4FTWxxQAGCJji21h8r5oczIBJKldlx3bYwQAG1sQAASNgBAwDvTKwpgTqWgkDBjBwVQYImOLba/E1AyYZXTUZTX07t2SxPXVGnd+8GCVgBIyAYaCRAcIxr2Su+GovDMyLAQKm+DYW36t2ZDNg80oAV21n22lnDGAAA9djgIARMAKGgV4ZkJSvl5TFT/wwsA4GCJji22vxNQO2jsSxxgLhliy218i9ax6OewJGwAgYBhoZIBzDJV5FTWwxgAECpvg2Ft+rJgczYJLKVdmxHXYwgIE1MUDACBgBw0CvDKwpgbpWwoABDFyVAQKm+PZafM2ASUZXTUZT384tWWxPnVHnNy9GCRgBI2AYaGSAcMwrmSu+2gsD82KAgCm+jcX3qh3ZDNi8EsBV29l22hkDGMDA9RggYASsVwH79IsPe92fDn69Di5+4ocBDGBgmgwQsJEE7O23386ePHniJQYYmBADX3755d4Dhn1vyerr8pxcfzkDh/S9pQokARtRwAJwt25uvMQAAxNhYIgiEARMX5fn5PpuBoboe3MTNQJGwMjARGRAwu5O2EPEZ4giQMDGb8ch2LDPYdtxiL5HwEYSmrkFWlIetjNLluJ7FQaGKAL6OhavwuLathmi783NC8yAjSSMkrKkvLYEO4frPaQIHPIMWNjvHK7fOcpLx2LgkL43N7Ha93wJGAFTKNyCXC0DQxQBgy1ScyypmdNxh+h7+4rPVNYjYARstcV3TsnKuQ5T1IcoAgRsmLbSB5YV1yH63lTEat/zIGATEbDbtzfZ3T9sss//tMnuf32Sv8LfYVn4TvIRAwz0z8AQReAyAdPX+29HfWN+MR2i7+0rPlNZj4BNQMB+/cUmu//nk+y3L5pf4buwzuyTzMPn2fnrN9mLxwu4lj5vWy49LhO+vkOKQB/PgK2mr/fZP+xr/rm/oQ0P6XtTEaa+z4OAHVnAQkJuE6/68nEk7DR78fpN9jJ59SZMAxTiR89eZS9fv8qePryq1IXrPc9OY4LYnWNx/WenPSS/2jHiseJ7r3H5LHv6bdp+14nNVWNa2671+i6JS4zPgO9DFIG2GbDp9fVNdqvGe299/eA2u3reOT1LeX+Tveylz9YY3ut60r6X5JQ9tp3ONYTrHqdfDtH3+hakofdHwI4oYOFWRNfMV13AwrpNtyPv/v4ke/DXk+zB306ye6cn1xSGWufLE/QEinhjEgsJ7zw7fXyenT/77IrXnV5v+HuIa02PcZXEfsg2ISblNeSC+u3z7FFj/A7Z7xDrjhmX5vMfogg0Cdh0+3oyI33Uvl5jIT+X/SQmyMvxxLGJq9q17NH3pnUNh5//Ve7ODNH3hhamvvdPwI4oYOH5rrpk/fDj72Tpq/592KYOexCvO/c22a9+s8kenPUsYDe3o7qY4Oojtbg8P6faaDrMIm3FqGtkuO3sT/OZrO1ItiJTrfvcjd7DaDesU5GMQ/e5S/T5sUp5qce5a7bg9OxV9vTx9hZrPnu2O596vPLvihH6EHGpCtj2nNNCFmJTzhiU7XdYzMrtLs6ilO3Xfn3dcbm4z/R4bbG+eK3b46fb1tt0iCLQJGBT7Ou5nBcsbvNKaJdt+215KGaGL8yKtHG0ya7WPrXjPT7PXsY+nffLlOFqu4ZzbmzjsI9kQLWdLS/3U2ew2EcY0J2d549LhHN4erbtL9vvL+knuWzVrqUQsK6YXe0atrNVTf25bM+Ls/n18ys/12NSzVdX7JfF9Vdr1xB9r29BGnp/BOyIAhYesq8LVvj8yaN38lfTd2GbehF58M0nxbKH3/QsYBeSX3L8ynehEyfyEpJfLbk3T23vklJcN+wzJt486bfvMyTUbVKsSUe+XXIromuftcKyTdJvyuRfJI/a9eXXXp5bnriK8w5FKE2oZYKrt932c9P3V41LNRbVIhu+KwtQtT1qx6vEPnxXXutWdOLn6vH2v77AUdN1x+Vx/zHpl5/bYx3OJYl7aKPIVdGOCb83N/l/GbRvkr3OM2BT7OshjqUsb+NS8lJvm/RzF0db9gt5upn2ha72CfsvReJl+lhAbRCY85e0a85Dsm3lmoo8lJ5/lYGc2bw/7/pGLm7h7+05hf2FuJRimuSWSj+J+2061h4xO/ga9thnEqeyb9bP77LP6XWV/bCaB7raPW5ffSdgNzICdkQBa7v92CVgYZuyI22Bfvj3rYAF+Wp61dfv/rxNOsWoKS28oYjlyakpUYbtks5ZJL6009U7eviuviz93LXPkHzK45UJ8pJ9Xjiv9HjlueaFKCTEmMAubJcWlurfF+PbfIxyvabv68vSz+Hv8trzNonnuStWRfsVy6PIpG0X/o77Sfcf4pAUy0uuPcaqUvgqwlPfd4xzy/JLjleV27iv3XuybT4Tc8mzgUMUgaYZsCn29SsLWC4rbRxd0hda26fGQipEMe/sWK63aycPNze5PIX+UMxwRTbDuSTSU0hfcY7lOZX5pVy27b9JP4n7vZDTLut7l8Ss7Ro62yGcZ+zbtT5y4fzq11T/fLFvxdyVxj79O37f9T5E39t3MDWV9QjYAgQsQt4kX4fPiLV0vjy51Dt1dd3QAcuEls60xARQXX973vVl1c+t+2xKPsUMVHUfFckrkmvXOaXf7ZLYhe2qSbM7+dTPJ+4/vjd9X19W/dwal1ycdue8i1EhRuFzEaN47Phe3f9WwPa79shfFLFCWrsKUsFTAye9xPo0e9F6rfGaD5sB2zdpDylgMdZ99PW8vVJB381WlTM9adskfHRyVO0X8XzL97ifevvE5bFtqgOssg/Xt7vseEHAzrMXZ3EGK+4/HC8VlOT4BX/lsm4BS/cT9l9uV1z3tWLWcg2d+2w4h9b+WF+3/nkXsyIuMYbV2HfnwHKbGBMCZgYs2zepXne9pqTc122JCHQfSbkxeVQ6bplsthKwS9KdySB2vqaOXV+WfO7YZ5kQm/ad7KNe6MM+i9sb29FrMfItrnO3z3zd3fWmf4f1ap+7k084nzJusb3K9/r5huPXlyWfw7Fb5aJauPIiW6wb9tEwE1CPUfgckm2MU+1a69deXscuLsXxmtomLovX2BCXS47XHetdUTg7vzjjUW/fA29B7psDZtPXO+McWCnbptLXczbbOKoW5Qobu/jn7XehfRK+w3r5uaUC2N6unTwU0lCfqeq4vmKb8pzKfFMuy68t7ScFX7V18uVh2RVjVpxP0zV077MYfBXndrHfVdv24vdFG3bycnm7F/vZnQsBI2BHFbC+HsyNYA8vYNtOFme5zp89r/yEw7Yjp7NgMYFvk0/cLn8vinQ9WVU/N++znoi2Rb1MxNV91GUml5LdrYcXj5N182TadP7b/Vdvv8Zrqx97t24l4ZW3QfJrL2YdwrHT46XPniXnVSTwsiA1xyUcuypg22tPknSeRJNjVtohWR7lK15HJTbptdevoeu79Pq2cUrbojJz1nq8PRJ9Q/GOfaT+fkgRuM4zYNPs61G0Y7unbVdltt7Xt4IUt6u2a9kPm/tCk1xFTsscUT2XvN1a2vVCX4j9K2eo7DPxGFFK0u0q1xe2y/dR9sGqgCXXXekn9b5QjctlMSuvvfboQ8Mx4jV07TNeb7HfGJfklmb4rnLtu/4+SL+MuWT3fkjf23fwM7f13II84i3Ivv5peiwq/QhYS9KsdZ54zOI9JK2imG/3ERJckSgu277p+yH22XScuS0bJC5lsSnadG5x2Z1vWSwvZ3mIItA0Azbtvj5u2x/SPimLV90u3cf1/x43Vtc/38v7wLGOMUTfI2AjCc3cAt2UlAP4k/xxxisV3obRXzLiulonH2Kf001I+8doiLjMv7AUo/YDuBuiCMyyrwepj7OxtYHU/lx2962rtE849lW36+u8q/uZfz+pXk93mw257hB9b25eYAZsJGFsS8oB8CBhbf9KKvwURfhunF/BP15nHLKj27d2bWNgiCKgr+OtjTfLSzaG6HsEbCShmVugu5Jy6JThFkV4TiQ8mO8/4y47qYQlFkMycEgRuM4zYOk16OuYTnlY69+H9L251ft9z9cM2EjCeJmArbUTum7F6JgMDFEE9HVMH5PpuRx7iL63r/hMZT0CRsAu/LDrXDqw81TorsvAEEWAgOHyulyuYfsh+t5UxGrf8yBgBIyAXekfHSgySygSQxQBAqZvLKFvDH0NQ/S9fcVnKusRMAJGwAjYahk4pAj09QzY0IXN/gngHBg4pO9NRZj6Pg8CRsBWW3znkKSc47DFdIgiYAZs2DbTJ5YR3yH6Xt+CNPT+CBgBI2BmwFbLwBBFgIAtQxCI3rDtOETfG1qY+t4/ARtZwO7fv595iQEGpsHAEEUgCpg2nkYba4dptsMQfa9vQRp6fwRsRAF78uRJ5iUGGJgOA4cUgUOeAdPG02ljbTHNtjik7w0tQsfaPwEbScCO1cCOe6P3/3D9vf/zo+yd937Q+361Vf9tJaZiGhjQZ3EwxVxAwAgYkTiEge/eyO7+359lv/j3T8TtkLhZFy/HYkCfxd6x2LvkuATskgBN0Zqd0/FGcz+5+aPsd2e3s9/9v9tmwfQdhW0GDOizx8uXalV37AnYDBIIiLshHi0+u5F0LmBnt82Crazv7PsM2Gg8riz+V4qrPmuQMOF+QsAm3DhXSjiuZ7CEU4ykwwyYWbDB4oz7iQw4FpBL9FksTTmfELAFJJkpA7aYc6uNpM2CSeyLYXupOVCfNUiaONsEbOINJMlPo9BfGEmbBZPc5Y5JM6DPTiN3qmHt7UDAJNFJJ9FJdN6WkbRZsPbEMol267lvewZsRu2tz8rrPff/IXIaAZtBIw3R8Pa5fzFpHUmbBZPk5Y9JMqDP7p/f1ILjxYqASaCTTKCTSQqXjKTNgh0veU2GETlkWjlEn51We+gfre1BwMDRCocCdyO7dCRtFgw/csikGNBnDYrmUrsImOQ5qeQ5qY6z50jaLNg6Er5nwGbQzvqsfD6jmk7AZtRYk5KTFcctCJe2mEExXjGj+Kzyqc9W44GPacSDgEnSZOJABiTzaSQvRUQ77MuAPouVfVkZcz0CdmDxHbNxHGuaSUMyn2a76C/apY0BfRYbbWwcczkBI2BmwA5kQDJfZzL3DNh8212fnW/bHVOQhj42ATuw+A7dIPY//UQhmU+/jfQjbZQyoM/iIeVhKn8TMAJmBuxABiRzyXwqCdx57MeiPrtfnPA0bpwI2IHFF6DjAjrFeEvmGJgil86pnUt9tj02uDlebAgYATMDdiADkvnxEtYxi4VnwObb7vrsfNvumH1+6GMTsAOL79ANYv/TTxSS+fTbSD/SRikD+iweUh6m8jcBI2BmwA5kQDKXzKeSwJ3Hfizqs/vFCU/jxomAHVh8ATouoFOMt2SOgSly6ZzaudRn22ODm+PFhoARMDNgBzIgmR8vYR2zWHgGbL7trs/Ot+2O2eeHPjYBO7D4Dt0g9j/9RCGZT7+N9CNtlDKgz+Ih5WEqfxMwAmYG7EAGQjL3ul4MppIA13AeWN2yuoa2do3zEk0CdmDxBfi8ANde02svsxHjtol4jxtvOUe892WAgBEwM2AYGJWBuQrBXJ8Bm2u89y1i1iM8c2WAgCm+oxbfuXYU591fkicE/cVyHy7Fe9x479Mm1tEmgQECRsAIGAZGZYAQjFt8xHvceJMr8d6XAQKm+I5afPcF03rLTWKEYNy2Fe9x4y13ife+DBAwAkbAMDAqA3MVAs+AKaz7FlbrYWUfBgiY4jtq8d0HSussO3nNVcDmyqV4L7s/zZVL5+0ZMPJBQDEwMgOEYFwhEO9x400sxHtfBsyAjVx89m0Y6+nES2WAEIzLtniPG++l9lvX1T9HBIyAmQHCwKgMzFUIPAPWfwFS1MV0zQwQMMV31OK75s7m2rfFZq4CNtf2E2+SM1d2l37eBIyAETAMjMoAIRhXCMR73HgvXRpcX388ETDFd9Tiq/P213nnGktCMC4D4j1uvOfaL533+JwQMAJGwDAwKgNzFQLPgI1foEiBmC+ZAQKm+I5afJfcmVzbfsVirgI21/YV7/24nGv7Ou/5ti8BI2AEDAOjMkAIxi0Y4j1uvAmReO/LAAFTfEctvvuCab3lJjFCMG7bive48Za7xHtfBggYASNgGBiVgbkKgWfAFNZ9C6v1sLIPAwRM8R21+O4DpXWWnbzmKmBz5VK8l92f5sql8/Z/QZIPAoqBkRkgBOMKgXiPG29iId77MmAGbOTis2/DWE8nXioDhGBctsV73Hgvtd+6rv45ImAEzAwQBkZlYK5C4Bmw/guQoi6ma2aAgCm+oxbfNXc2174tNnMVsLm2n3iTnLmyu/TzJmAEjIBhYFQGPv3iw1GPt/Qkftn1iTcBu4wR3x+HEQKm+CqGGKgw8Pbbb2dPnjzxEoNLGfjyyy8r7Cjkxynk4j7PuBMwxVcCxUCFgSBgobDeurnxEoNOBgjYPAs/YZtGuxEwxbdSfHXMaXTMY7YDASOe+8o3AZMvjpmr5n5sAkbACBgGKgwQMAJGwIjV3OVmDudPwBTfSvGdA7TOcdjiQMAIGAEbto/JYeIbGCBgBIyAYaDCAAEjYASMIJDE4RkgYIpvpfjqdMN3uqnHmIARMAImD0w9Ty3h/AgYASNgGKgwcJmA3b69ye7+YZN9/qdNdv/rk/wV/g7Lwnf7Fm/rzT9WHsInaksQoWNdAwFTfCvF91ggOu50EnmXgP36i012/88n2W9fNL/Cd2EdctVjDB4+z85fv8lePO5xnz39vAYBm06/lUPn1xYEjIARMAxUGGgTsCBWbeJVXz6OhH2WPf32Tfbydfm6vqTU9/kqe/rwyOLTKmCn2YvX59lpTzJ1FWkmYPMr+kRtOm1GwBTfSvHVOafTOY/VFk0CFm4tds181QUsrNt0O/Lu70+yB389yR787SS7d3rS60zZ6Vkfs0RBwErpevTsVfby2+fZoyNKTrsYEbBj9RHHlSf7YICAETAChoEKA00CFp7vqkvWDz/+Tpa+6t+HberyEMTrzr1N9qvfbLIHZ0MK2FZOngaB2s2QnT/7rDifIGtxeXgvZ86qAnYrn31KZ5nCfstty+26j7fdT9N2m6z+XXme6Wxceg6brH7++bWcnRbXV99neZ5h21fZ08fb25r5dlEwL1zr9vjptvX2NANGRPoQkbXug4ApvpXiu9aO4LrLQtIkYOEh+7pghc+fPHonfzV9F7apF+wH33xSLHv4zdAC9iZ7WUhJEKRyZqtyXhXxqApYPgNW7CN8l4rQVrq2twB3Ylasmx4v/TsKVzyX6vEq51XMuqXHSWPatTzuv368nbxF6bq5/byVrJpwhbgU15Met/ybgJX9Rg4Ri0MZIGAEjIBhoMJAk4C13X7sErCwTV0oHv59K2BBvppe9fUP+Vy9BVmXk5pcPD6vzIC9LJ6l2q5XzI6lApKLWjmLtV0nik7H8cKx0v1UpGeT5ZL3+k1WznyVgrO9/vq+4/ctyy85XjVOcV+792TbfKbskuffCBjpOFQ6rF8yQ8AU30rx1TnKzrHWWAwpYFGomuTrujNiVbGoy0k60xS+i+IUxCNdN1lvJ1yFGIXPycxRvJZmSUr2k0hN3KZ6rlv5iSJWl7Xq+aXClJ53svyS4zUdO55XeazT7EXrtZbHImDyxVrzZB/XTcAIGAHDQIWBJgHr6xZkLPT9CNhp9rR4rqtLqjbZrSAlxSxXdd0gJOV3iTjd3M1OFSIStkufFytFpBSX3bL0eLnIJcJX/1zcatzdLiyOF/ffIlq5OCb7jfup77/2uVvAdrckz86T5+LieVx8J2AErA8RWes+CJjiWym+a+0IrrssJE0C1tdD+P0KWHn7LtwOLGaqchHZylJxK7GQr61EbKVrezvx/Nnz5OccqgK2FatEunKZSW5DFrLUfbytAMbtUmmqb9f13ZsL/yKzmDUL/zAgvc2ZC2DT8dJnvi4KVd4++TWmz7q1rHdzkxGwst/IIWJxKAMEjIARMAxUGGgSsL5+hqJvAYv7u/jeNmvULhMX93HIumMf75BzO2zdIHVVmW3fnoCRjkOlw/olMwRM8a0UX52j7BxrjUWTgAU5md4PsbaLwYVbgvH23GDv8xewYjYtnUm7JF4ETL5Ya57s47oJGAEjYBioMNAmYFHC2v5FZPgpivDdOL+C3yVfvrvebN7+8SNgBKwPEVnrPgiY4lspvmvtCK67LCRdAhYKe7gdGZ4JCw/m+8+495eVsaRozOMQsLLfyCFicSgDBIyAETAMVBi4TMDGLPCONW3BI2Ck41DpsH7JDAFTfCvFV+coO8daY0HApi09U5JSAiZfrDVP9nHdBIyAETAMVBggYARsX8kjYASsDxFZ6z4ImOJbKb5r7QiuuywkBIyAEbCyP8gNYjEUAwSMgBEwDFQYIGAEjICRjqGkw35LtgiY4lspvjpH2TnWGgsCRsAImDyw1vw35nUTMAJGwDBQYSAK2P379zMvMehiwDNgRG1MYVnasQiY4lspvksD3PUcXiCCgD158sRLDC5lgIAd3r/kJDGLDBAwAkbAMIABDGAAAxgYmQECNnLAo/l6NwrCAAYwgAEMrJcBAkbAjHowgAEMYAADGBiZAQI2csCNdtY72tH22h4DGMAABiIDBIyAGfVgAAMYwAAGMDAyAwRs5IBH8/VuFIQBDGAAAxhYLwMEjIAZ9WAAAxjAAAYwMDIDBGzkgBvtrHe0o+21PQYwgAEMRAYIGAEz6sEABjCAAQxgYGQGCNjIAY/m690oCAMYwAAGMLBeBggYATPqwQAGMIABDGBgZAYI2MgBN9pZ72hH22t7DGAAAxiIDBAwAmbUgwEMYAADGMDAyAwQsJEDHs3Xu1EQBjCAAQxgYL0MEDACZtSDAQxgAAMYwMDIDBCwkQNutLPe0Y621/YYwAAGMBAZIGAEzKgHAxjAAAYwgIGRGSBgIwc8mq93oyAMYAADGMDAehkgYATMqAcDGMAABjCAgZEZIGAjB9xoZ72jHW2v7TGAAQxgIDJAwAiYUQ8GMIABDGAAAyMzQMBGDng0X+9GQRjAAAYwgIH1MkDACJhRDwYwgAEMYAADIzNAwEYOuNHOekc72l7bYwADGMBAZICAETCjHgxgAAMYwAAGRmaAgI0c8Gi+3o2CMIABDGAAA+tlgIARMKMeDGAAAxjAAAZGZoCAjRxwo531jna0vbbHAAYwgIHIAAEjYEY9GMAABjCAAQyMzAABGzng0Xy9GwVhAAMYwAAG1ssAASNgRj0YwAAGMIABDIzMAAEbOeBGO+sd7Wh7bY8BDGAAA5EBAkbAjHowgAEMYAADGBiZAQI2csCj+Xo3CsIABjCAAQyslwECRsCMejCAAQxgAAMYGJkBAjZywI121jva0fbaHgMYwAAGIgMEjIAZ9WAAAxjAAAYwMDIDBGzkgEfz9W4UhAEMYAADGFgvA/8fu75JRYPDq9AAAAAASUVORK5CYII=;" vertex="1" parent="EBmrGP6m8wThTGVB1uCB-1">
          <mxGeometry x="60" y="10" width="608" height="423" as="geometry" />
        </mxCell>
      </root>
    </mxGraphModel>
  </diagram>
</mxfile>
